<svg width="437" height="489" viewBox="0 0 437 489" fill="none" xmlns="http://www.w3.org/2000/svg">
<path d="M139.146 311.571C140.122 320.21 142.052 324.389 152.038 330.595" stroke="url(#paint0_radial_719_10871)" stroke-width="30" stroke-linecap="round"/>
<path d="M133.682 352.76C181.837 359.911 231.941 333.988 254.82 321.491" stroke="url(#paint1_radial_719_10871)" stroke-width="60" stroke-linecap="round"/>
<path d="M229.765 481.909C260.572 492.566 287.112 409.058 270.225 393.867C260.242 384.886 246.881 363.463 237.378 377.427C226.628 393.225 194.504 469.71 229.765 481.909Z" fill="#647CAA"/>
<path d="M229.765 481.909C260.572 492.566 287.112 409.058 270.225 393.867C260.242 384.886 246.881 363.463 237.378 377.427C226.628 393.225 194.504 469.71 229.765 481.909Z" fill="url(#paint2_radial_719_10871)"/>
<path d="M229.765 481.909C260.572 492.566 287.112 409.058 270.225 393.867C260.242 384.886 246.881 363.463 237.378 377.427C226.628 393.225 194.504 469.71 229.765 481.909Z" fill="url(#paint3_radial_719_10871)"/>
<path d="M330.649 317.398C365.938 377.895 337.844 410.863 298.892 423.129C259.941 435.396 217.899 385.736 206.348 349.054C190.307 298.116 211.353 284.023 251.141 271.494C290.928 258.964 295.359 256.902 330.649 317.398Z" fill="#647CAA"/>
<path d="M330.649 317.398C365.938 377.895 337.844 410.863 298.892 423.129C259.941 435.396 217.899 385.736 206.348 349.054C190.307 298.116 211.353 284.023 251.141 271.494C290.928 258.964 295.359 256.902 330.649 317.398Z" fill="url(#paint4_radial_719_10871)"/>
<path d="M330.649 317.398C365.938 377.895 337.844 410.863 298.892 423.129C259.941 435.396 217.899 385.736 206.348 349.054C190.307 298.116 211.353 284.023 251.141 271.494C290.928 258.964 295.359 256.902 330.649 317.398Z" fill="url(#paint5_radial_719_10871)"/>
<path d="M263.208 285.322C298.158 286.32 303.518 343.477 273.186 360.87C267.738 363.994 260.161 366.181 249.189 367.03C241.06 367.66 234.572 367.189 229.273 365.906C191.73 356.815 188.802 293.437 227.006 287.727C231.932 286.99 237.247 286.429 242.916 285.99C250.369 285.413 257.137 285.149 263.208 285.322Z" fill="#647CAA"/>
<path d="M263.208 285.322C298.158 286.32 303.518 343.477 273.186 360.87C267.738 363.994 260.161 366.181 249.189 367.03C241.06 367.66 234.572 367.189 229.273 365.906C191.73 356.815 188.802 293.437 227.006 287.727C231.932 286.99 237.247 286.429 242.916 285.99C250.369 285.413 257.137 285.149 263.208 285.322Z" fill="url(#paint6_radial_719_10871)"/>
<path d="M256.788 350.871L256.788 350.868C255.829 344.522 254.925 338.177 254.02 331.825C253.68 329.44 253.34 327.055 252.997 324.668C252.177 318.964 251.359 313.275 250.554 307.585L250.554 307.583C250.404 306.538 250.255 305.491 250.105 304.441C249.806 302.337 249.505 300.226 249.194 298.118L249.193 298.114C249.054 297.197 248.689 296.384 248.056 295.813C247.409 295.23 246.578 294.985 245.688 295.049L245.688 295.049L245.685 295.049C244.557 295.134 243.533 295.483 242.89 296.346C242.261 297.19 242.174 298.293 242.341 299.46L242.356 299.562L242.371 299.664L242.385 299.766L242.4 299.868L242.415 299.97L242.429 300.072L242.444 300.174L242.459 300.275L242.473 300.377L242.488 300.479L242.503 300.581L242.517 300.683L242.532 300.785L242.547 300.887L242.561 300.989L242.576 301.091L242.59 301.193L242.605 301.294L242.62 301.396L242.634 301.498L242.649 301.6L242.664 301.702L242.678 301.804L242.693 301.906L242.708 302.008L242.722 302.11L242.737 302.211L242.752 302.313L242.766 302.415L242.781 302.517L242.795 302.619L242.81 302.721L242.825 302.823L242.839 302.925L242.854 303.027L242.869 303.129L242.883 303.231L242.898 303.332L242.913 303.434L242.927 303.536L242.942 303.638L242.957 303.74L242.971 303.842L242.986 303.944L243.001 304.046L243.015 304.148L243.03 304.25L243.044 304.351L243.059 304.453L243.074 304.555L243.088 304.657L243.103 304.759L243.118 304.861L243.132 304.963L243.147 305.065L243.162 305.167L243.176 305.269L243.191 305.371L243.206 305.472L243.22 305.574L243.235 305.676L243.249 305.778L243.264 305.88L243.279 305.982L243.293 306.084L243.308 306.186L243.323 306.288L243.337 306.39L243.352 306.492L243.367 306.593L243.381 306.695L243.396 306.797L243.411 306.899L243.425 307.001L243.44 307.103L243.455 307.205L243.469 307.307L243.484 307.409L243.498 307.511L243.513 307.613L243.528 307.714L243.542 307.816L243.557 307.918L243.572 308.02L243.586 308.122L243.601 308.224L243.616 308.326L243.63 308.428L243.645 308.53L243.66 308.632L243.674 308.734L243.689 308.836L243.704 308.937L243.718 309.039L243.733 309.141L243.747 309.243L243.762 309.345L243.777 309.447L243.791 309.549L243.806 309.651L243.821 309.753L243.835 309.855L243.85 309.957L243.865 310.059L243.879 310.16L243.894 310.262L243.909 310.364L243.923 310.466L243.938 310.568L243.953 310.67L243.967 310.772L243.982 310.874L243.996 310.976L244.011 311.078L244.026 311.18L244.04 311.282L244.055 311.383L244.07 311.485L244.084 311.587L244.099 311.689L244.114 311.791L244.128 311.893L244.143 311.995L244.158 312.097L244.172 312.199L244.187 312.301L244.202 312.403L244.216 312.505L244.231 312.607L244.245 312.708L244.26 312.81L244.275 312.912L244.289 313.014L244.304 313.116L244.319 313.218L244.333 313.32L244.348 313.422L244.363 313.524L244.377 313.626L244.392 313.728L244.407 313.83L244.421 313.932L244.436 314.033L244.451 314.135L244.465 314.237L244.48 314.339L244.495 314.441L244.509 314.543L244.524 314.645L244.538 314.747L244.553 314.849L244.568 314.951L244.582 315.053L244.597 315.155L244.612 315.257L244.626 315.358L244.641 315.46L244.656 315.562L244.67 315.664L244.685 315.766L244.7 315.868L244.714 315.97L244.729 316.072L244.744 316.174L244.758 316.276L244.773 316.378L244.787 316.48L244.802 316.582L244.817 316.683L244.831 316.785L244.846 316.887L244.861 316.989L244.875 317.091L244.89 317.193L244.905 317.295L244.919 317.397L244.934 317.499L244.949 317.601L244.963 317.703L244.978 317.805L244.993 317.907L245.007 318.009L245.022 318.11L245.037 318.212L245.051 318.314L245.066 318.416L245.08 318.518L245.095 318.62L245.11 318.722L245.124 318.824L245.139 318.926L245.154 319.028L245.168 319.13L245.183 319.232L245.198 319.334L245.212 319.436L245.227 319.537L245.242 319.639L245.256 319.741L245.271 319.843L245.286 319.945L245.3 320.047L245.315 320.149L245.33 320.251L245.344 320.353L245.359 320.455L245.373 320.557L245.388 320.659L245.403 320.761L245.417 320.863L245.432 320.964L245.447 321.066L245.461 321.168L245.476 321.27L245.491 321.372L245.505 321.474L245.52 321.576L245.535 321.678L245.549 321.78L245.564 321.882L245.579 321.984L245.593 322.086L245.608 322.188L245.622 322.29L245.637 322.392L245.652 322.493L245.666 322.595L245.681 322.697L245.696 322.799L245.71 322.901L245.725 323.003L245.74 323.105L245.754 323.207L245.769 323.309L245.784 323.411L245.798 323.513L245.813 323.615L245.828 323.717L245.842 323.819L245.857 323.92L245.872 324.022L245.886 324.124L245.901 324.226L245.915 324.328L245.93 324.43L245.945 324.532L245.959 324.634L245.974 324.736L245.989 324.838L246.003 324.94L246.018 325.042L246.033 325.144L246.047 325.246L246.062 325.348L246.077 325.449L246.091 325.551L246.106 325.653L246.121 325.755L246.135 325.857L246.15 325.959L246.165 326.061L246.179 326.163L246.194 326.265L246.208 326.367L246.223 326.469L246.238 326.571L246.252 326.673L246.267 326.775L246.282 326.876L246.296 326.978L246.311 327.08L246.326 327.182L246.34 327.284L246.355 327.386L246.37 327.488L246.384 327.59L246.399 327.692L246.414 327.794L246.428 327.896L246.443 327.998L246.458 328.1L246.472 328.202L246.487 328.304L246.501 328.405L246.516 328.507L246.531 328.609L246.545 328.711L246.56 328.813L246.575 328.915L246.589 329.017L246.604 329.119L246.619 329.221L246.633 329.323L246.648 329.425L246.663 329.527L246.677 329.629L246.692 329.731L246.707 329.832L246.721 329.934L246.736 330.036L246.75 330.138L246.765 330.24L246.78 330.342L246.794 330.444L246.809 330.546L246.824 330.648L246.838 330.75L246.853 330.852L246.868 330.954L246.882 331.056L246.897 331.158L246.912 331.26L246.926 331.361L246.941 331.463L246.956 331.565L246.97 331.667L246.985 331.769L247 331.871L247.014 331.973L247.029 332.075L247.043 332.177L247.058 332.279L247.073 332.381L247.087 332.483L247.102 332.585L247.117 332.687L247.131 332.788L247.146 332.89L247.161 332.992L247.175 333.094L247.19 333.196L247.205 333.298L247.219 333.4L247.234 333.502L247.249 333.604L247.263 333.706L247.278 333.808L247.293 333.91L247.307 334.012L247.322 334.114L247.336 334.215L247.351 334.317L247.366 334.419L247.38 334.521L247.395 334.623L247.41 334.725L247.424 334.827L247.439 334.929L247.454 335.031L247.468 335.133L247.483 335.235L247.498 335.337L247.512 335.439L247.527 335.54L247.542 335.642L247.556 335.744L247.571 335.846L247.585 335.948L247.6 336.05L247.615 336.152L247.629 336.254L247.644 336.356L247.659 336.458L247.673 336.56L247.688 336.662L247.703 336.764L247.717 336.865L247.732 336.967L247.747 337.069L247.761 337.171L247.776 337.273L247.791 337.375L247.805 337.477L247.82 337.579L247.835 337.681L247.849 337.783L247.864 337.885L247.878 337.987L247.893 338.089L247.908 338.19L247.922 338.292L247.937 338.394L247.952 338.496L247.966 338.598L247.981 338.7L247.996 338.802L248.01 338.904L248.025 339.006L248.04 339.108L248.054 339.21L248.069 339.312L248.084 339.414L248.098 339.515L248.113 339.617L248.127 339.719L248.142 339.821L248.157 339.923L248.171 340.025L248.186 340.127L248.201 340.229L248.215 340.331L248.23 340.433L248.245 340.535L248.259 340.637L248.274 340.739L248.289 340.84L248.303 340.942L248.318 341.044L248.333 341.146L248.347 341.248L248.362 341.35L248.376 341.452L248.391 341.554L248.406 341.656L248.42 341.758L248.435 341.86L248.45 341.962L248.464 342.063L248.479 342.165L248.494 342.267L248.508 342.369L248.523 342.471L248.538 342.573L248.552 342.675L248.567 342.777L248.582 342.879L248.596 342.981L248.611 343.083L248.625 343.184L248.64 343.286L248.655 343.388L248.669 343.49L248.684 343.592L248.699 343.694L248.713 343.796L248.728 343.898L248.743 344L248.757 344.102L248.772 344.204L248.787 344.306L248.801 344.407L248.816 344.509L248.831 344.611L248.845 344.713L248.86 344.815L248.874 344.917L248.889 345.019L248.904 345.121L248.918 345.223L248.933 345.325L248.948 345.427L248.962 345.528L248.977 345.63L248.992 345.732L249.006 345.834L249.021 345.936L249.036 346.038L249.05 346.14L249.065 346.242L249.08 346.344L249.094 346.446L249.109 346.548L249.123 346.649L249.138 346.751L249.153 346.853L249.167 346.955L249.182 347.057L249.197 347.159L249.211 347.261L249.226 347.363L249.241 347.465L249.255 347.567L249.27 347.668L249.285 347.77L249.299 347.872L249.314 347.974L249.328 348.076L249.343 348.178L249.358 348.28L249.372 348.382L249.387 348.484L249.402 348.586L249.416 348.687L249.431 348.789L249.446 348.891L249.46 348.993L249.475 349.095L249.49 349.197L249.504 349.299L249.519 349.401L249.534 349.503L249.548 349.605L249.563 349.706L249.577 349.808L249.592 349.91L249.607 350.012L249.621 350.114L249.636 350.216L249.651 350.318L249.665 350.42L249.68 350.522L249.695 350.624L249.709 350.725L249.724 350.827L249.739 350.929L249.753 351.031L249.768 351.133L249.782 351.235L249.797 351.337L249.812 351.439L249.826 351.541L249.841 351.642C249.848 351.69 249.855 351.745 249.863 351.804C249.891 352.016 249.927 352.291 249.987 352.543L249.987 352.543L249.99 352.554C250.26 353.62 250.923 354.517 252.069 354.884L252.074 354.886C253.099 355.208 254.371 355.123 255.365 354.474C256.433 353.776 257.033 352.523 256.788 350.871Z" fill="#647CAA" stroke="#647CAA" stroke-width="1.94352"/>
<path d="M237.152 346.845L237.152 346.842C236.529 342.418 235.893 337.995 235.257 333.571L235.25 333.521L235.243 333.471L235.236 333.422L235.228 333.372L235.221 333.322L235.214 333.272L235.207 333.222L235.2 333.172L235.193 333.123L235.185 333.073L235.178 333.023L235.171 332.973L235.164 332.923L235.157 332.874L235.15 332.824L235.142 332.774L235.135 332.724L235.128 332.674L235.121 332.624L235.114 332.575L235.107 332.525L235.1 332.475L235.092 332.425L235.085 332.375L235.078 332.326L235.071 332.276L235.064 332.226L235.057 332.176L235.049 332.126L235.042 332.077L235.035 332.027L235.028 331.977L235.021 331.927L235.014 331.877L235.006 331.827L234.999 331.778L234.992 331.728L234.985 331.678L234.978 331.628L234.971 331.578L234.964 331.529L234.956 331.479L234.949 331.429L234.942 331.379L234.935 331.329L234.928 331.279L234.921 331.23L234.913 331.18L234.906 331.13L234.899 331.08L234.892 331.03L234.885 330.981L234.878 330.931L234.87 330.881L234.863 330.831L234.856 330.781L234.849 330.732L234.842 330.682L234.835 330.632L234.827 330.582L234.82 330.532L234.813 330.482L234.806 330.433L234.799 330.383L234.792 330.333L234.785 330.283L234.777 330.233L234.77 330.184L234.763 330.134L234.756 330.084L234.749 330.034L234.742 329.984L234.734 329.934L234.727 329.885L234.72 329.835L234.713 329.785L234.706 329.735L234.699 329.685L234.691 329.636L234.684 329.586L234.677 329.536L234.67 329.486L234.663 329.436L234.656 329.387L234.648 329.337L234.641 329.287L234.634 329.237L234.627 329.187L234.62 329.137L234.613 329.088L234.606 329.038L234.598 328.988L234.591 328.938L234.584 328.888L234.577 328.839L234.57 328.789L234.563 328.739L234.555 328.689L234.548 328.639L234.541 328.589L234.534 328.54L234.527 328.49L234.52 328.44L234.512 328.39L234.505 328.34L234.498 328.291L234.491 328.241L234.484 328.191L234.477 328.141L234.47 328.091L234.462 328.041L234.455 327.992L234.448 327.942L234.441 327.892L234.434 327.842L234.427 327.792L234.419 327.743L234.412 327.693L234.405 327.643L234.398 327.593L234.391 327.543L234.384 327.493L234.376 327.444L234.369 327.394L234.362 327.344L234.355 327.294L234.348 327.244L234.341 327.195L234.333 327.145L234.326 327.095L234.319 327.045L234.312 326.995L234.305 326.945L234.298 326.896L234.291 326.846L234.283 326.796L234.276 326.746L234.269 326.696L234.262 326.647L234.255 326.597L234.248 326.547L234.24 326.497L234.233 326.447L234.226 326.397L234.219 326.348L234.212 326.298L234.205 326.248L234.197 326.198L234.19 326.148L234.183 326.099L234.176 326.049L234.169 325.999L234.162 325.949L234.154 325.899L234.147 325.849L234.14 325.8L234.133 325.75L234.126 325.7L234.119 325.65L234.112 325.6L234.104 325.55L234.097 325.501L234.09 325.451L234.083 325.401L234.076 325.351L234.069 325.301L234.061 325.252L234.054 325.202L234.047 325.152L234.04 325.102L234.033 325.052L234.026 325.002L234.018 324.953L234.011 324.903L234.004 324.853L233.997 324.803L233.99 324.753L233.983 324.703L233.975 324.654L233.968 324.604L233.961 324.554L233.954 324.504L233.947 324.454L233.94 324.405L233.932 324.355L233.925 324.305L233.918 324.255L233.911 324.205L233.904 324.155L233.897 324.106L233.89 324.056L233.882 324.006L233.875 323.956L233.868 323.906L233.861 323.856L233.854 323.807L233.847 323.757L233.839 323.707L233.832 323.657L233.825 323.607L233.818 323.558L233.811 323.508L233.804 323.458L233.796 323.408L233.789 323.358L233.782 323.308L233.775 323.259L233.768 323.209L233.761 323.159L233.753 323.109L233.746 323.059L233.739 323.009L233.732 322.96L233.725 322.91L233.718 322.86L233.71 322.81L233.703 322.76L233.696 322.71L233.689 322.661L233.682 322.611L233.675 322.561L233.668 322.511L233.66 322.461L233.653 322.411L233.646 322.362L233.639 322.312L233.632 322.262L233.625 322.212L233.617 322.162L233.61 322.113L233.603 322.063L233.596 322.013L233.589 321.963L233.582 321.913L233.574 321.863L233.567 321.814L233.56 321.764L233.553 321.714L233.546 321.664L233.539 321.614L233.531 321.564L233.524 321.515L233.517 321.465L233.51 321.415L233.503 321.365L233.496 321.315L233.488 321.265L233.481 321.216L233.474 321.166L233.467 321.116L233.46 321.066L233.453 321.016L233.446 320.966L233.438 320.917L233.431 320.867L233.424 320.817L233.417 320.767L233.41 320.717L233.403 320.667L233.395 320.618L233.388 320.568L233.381 320.518L233.374 320.468L233.367 320.418L233.36 320.368L233.352 320.319L233.345 320.269L233.338 320.219L233.331 320.169L233.324 320.119L233.317 320.069L233.309 320.02L233.302 319.97L233.295 319.92L233.288 319.87L233.281 319.82L233.274 319.77L233.266 319.721L233.259 319.671L233.252 319.621L233.245 319.571L233.238 319.521L233.231 319.471L233.223 319.421L233.216 319.372L233.209 319.322L233.202 319.272L233.195 319.222L233.188 319.172L233.181 319.122L233.173 319.073L233.166 319.023L233.159 318.973L233.152 318.923L233.145 318.873L233.138 318.823L233.13 318.774L233.123 318.724L233.116 318.674L233.109 318.624L233.102 318.574L233.095 318.524L233.087 318.475L233.08 318.425L233.073 318.375L233.066 318.325L233.059 318.275L233.052 318.225L233.044 318.175L233.037 318.126L233.03 318.076L233.023 318.026L233.016 317.976L233.009 317.926L233.001 317.876L232.994 317.827L232.987 317.777L232.98 317.727L232.973 317.677L232.966 317.627L232.958 317.577L232.951 317.528L232.944 317.478L232.937 317.428L232.93 317.378L232.923 317.328L232.915 317.278L232.908 317.228L232.901 317.179L232.894 317.129L232.887 317.079L232.88 317.029L232.872 316.979L232.865 316.929L232.858 316.88L232.851 316.83L232.844 316.78L232.837 316.73L232.83 316.68L232.822 316.63L232.815 316.58L232.808 316.531L232.801 316.481L232.794 316.431L232.787 316.381L232.779 316.331L232.772 316.281L232.765 316.231L232.758 316.182L232.751 316.132L232.744 316.082L232.736 316.032L232.729 315.982L232.722 315.932L232.715 315.883L232.708 315.833L232.701 315.783L232.693 315.733L232.686 315.683L232.679 315.633L232.672 315.583L232.665 315.534L232.658 315.484L232.65 315.434L232.643 315.384L232.636 315.334L232.629 315.284L232.622 315.234L232.615 315.185L232.607 315.135L232.6 315.085L232.593 315.035L232.586 314.985L232.579 314.935L232.572 314.885L232.564 314.836L232.557 314.786L232.55 314.736L232.543 314.686L232.536 314.636L232.529 314.586L232.521 314.536L232.514 314.487L232.507 314.437L232.5 314.387L232.493 314.337L232.486 314.287L232.478 314.237L232.471 314.187L232.464 314.138L232.457 314.088L232.45 314.038L232.443 313.988L232.435 313.938L232.428 313.888L232.421 313.838L232.414 313.789L232.407 313.739L232.4 313.689L232.392 313.639L232.385 313.589L232.378 313.539L232.371 313.489L232.364 313.44L232.357 313.39L232.349 313.34L232.342 313.29L232.335 313.24L232.328 313.19L232.321 313.14L232.314 313.09L232.306 313.041L232.299 312.991L232.292 312.941L232.285 312.891L232.278 312.841L232.271 312.791L232.263 312.741L232.256 312.692L232.249 312.642L232.242 312.592L232.235 312.542L232.228 312.492L232.22 312.442L232.213 312.392L232.206 312.342L232.199 312.293L232.192 312.243L232.185 312.193L232.177 312.143L232.17 312.093L232.163 312.043L232.156 311.993L232.149 311.944L232.142 311.894L232.134 311.844L232.127 311.794L232.12 311.744L232.113 311.694L232.106 311.644L232.099 311.594L232.091 311.545L232.084 311.495L232.077 311.445L232.07 311.395L232.063 311.345L232.056 311.295L232.048 311.245L232.041 311.195L232.034 311.146L232.027 311.096L232.02 311.046L232.013 310.996L232.005 310.946L231.998 310.896L231.991 310.846L231.984 310.796L231.977 310.747L231.97 310.697L231.962 310.647L231.955 310.597L231.948 310.547L231.941 310.497L231.934 310.447L231.927 310.397L231.919 310.348L231.912 310.298L231.905 310.248L231.898 310.198L231.891 310.148L231.884 310.098L231.876 310.048L231.869 309.998L231.862 309.949L231.855 309.899L231.848 309.849L231.841 309.799L231.833 309.749L231.826 309.699L231.819 309.649L231.812 309.599L231.805 309.549L231.798 309.5L231.79 309.45L231.783 309.4L231.776 309.35L231.769 309.3L231.762 309.25L231.755 309.2L231.747 309.15L231.74 309.101L231.733 309.051L231.726 309.001L231.719 308.951L231.711 308.901L231.704 308.851L231.697 308.801L231.69 308.751L231.683 308.701L231.676 308.652L231.668 308.602L231.661 308.552L231.654 308.502L231.647 308.452L231.64 308.402L231.633 308.352L231.625 308.302L231.618 308.252L231.611 308.203L231.604 308.153L231.597 308.103L231.59 308.053C231.385 306.629 231.877 305.336 232.843 304.545C233.817 303.748 235.175 303.547 236.485 304.122L237.152 346.845ZM237.152 346.845C237.32 348.013 237.815 349.194 239.159 349.784C240.469 350.359 241.827 350.158 242.801 349.361C243.767 348.57 244.259 347.276 244.054 345.853L244.049 345.815L244.044 345.777L244.038 345.739L244.033 345.701L244.027 345.663L244.022 345.626L244.016 345.588L244.011 345.55L244.006 345.512L244 345.474L243.995 345.436L243.989 345.398L243.984 345.361L243.978 345.323L243.973 345.285L243.967 345.247L243.962 345.209L243.957 345.171L243.951 345.133L243.946 345.095L243.94 345.058L243.935 345.02L243.929 344.982L243.924 344.944L243.918 344.906L243.913 344.868L243.908 344.83L243.902 344.793L243.897 344.755L243.891 344.717L243.886 344.679L243.88 344.641L243.875 344.603L243.869 344.565L243.864 344.527L243.859 344.49L243.853 344.452L243.848 344.414L243.842 344.376L243.837 344.338L243.831 344.3L243.826 344.262L243.82 344.224L243.815 344.187L243.81 344.149L243.804 344.111L243.799 344.073L243.793 344.035L243.788 343.997L243.782 343.959L243.777 343.922L243.771 343.884L243.766 343.846L243.761 343.808L243.755 343.77L243.75 343.732L243.744 343.694L243.739 343.656L243.733 343.619L243.728 343.581L243.723 343.543L243.717 343.505L243.712 343.467L243.706 343.429L243.701 343.391L243.695 343.354L243.69 343.316L243.684 343.278L243.679 343.24L243.674 343.202L243.668 343.164L243.663 343.126L243.657 343.088L243.652 343.051L243.646 343.013L243.641 342.975L243.635 342.937L243.63 342.899L243.625 342.861L243.619 342.823L243.614 342.785L243.608 342.748L243.603 342.71L243.597 342.672L243.592 342.634L243.586 342.596L243.581 342.558L243.576 342.52L243.57 342.483L243.565 342.445L243.559 342.407L243.554 342.369L243.548 342.331L243.543 342.293L243.537 342.255L243.532 342.217L243.527 342.18L243.521 342.142L243.516 342.104L243.51 342.066L243.505 342.028L243.499 341.99L243.494 341.952L243.488 341.915L243.483 341.877L243.478 341.839L243.472 341.801L243.467 341.763L243.461 341.725L243.456 341.687L243.45 341.649L243.445 341.612L243.439 341.574L243.434 341.536L243.429 341.498L243.423 341.46L243.418 341.422L243.412 341.384L243.407 341.347L243.401 341.309L243.396 341.271L243.391 341.233L243.385 341.195L243.38 341.157L243.374 341.119L243.369 341.081L243.363 341.044L243.358 341.006L243.352 340.968L243.347 340.93L243.342 340.892L243.336 340.854L243.331 340.816L243.325 340.778L243.32 340.741L243.314 340.703L243.309 340.665L243.303 340.627L243.298 340.589L243.293 340.551L243.287 340.513L243.282 340.476L243.276 340.438L243.271 340.4L243.265 340.362L243.26 340.324L243.254 340.286L243.249 340.248L243.244 340.21L243.238 340.173L243.233 340.135L243.227 340.097L243.222 340.059L243.216 340.021L243.211 339.983L243.205 339.945L243.2 339.908L243.195 339.87L243.189 339.832L243.184 339.794L243.178 339.756L243.173 339.718L243.167 339.68L243.162 339.642L243.156 339.605L243.151 339.567L243.146 339.529L243.14 339.491L243.135 339.453L243.129 339.415L243.124 339.377L243.118 339.34L243.113 339.302L243.108 339.264L243.102 339.226L243.097 339.188L243.091 339.15L243.086 339.112L243.08 339.074L243.075 339.037L243.069 338.999L243.064 338.961L243.059 338.923L243.053 338.885L243.048 338.847L243.042 338.809L243.037 338.771L243.031 338.734L243.026 338.696L243.02 338.658L243.015 338.62L243.01 338.582L243.004 338.544L242.999 338.506L242.993 338.469L242.988 338.431L242.982 338.393L242.977 338.355L242.971 338.317L242.966 338.279L242.961 338.241L242.955 338.203L242.95 338.166L242.944 338.128L242.939 338.09L242.933 338.052L242.928 338.014L242.922 337.976L242.917 337.938L242.912 337.901L242.906 337.863L242.901 337.825L242.895 337.787L242.89 337.749L242.884 337.711L242.879 337.673L242.873 337.635L242.868 337.598L242.863 337.56L242.857 337.522L242.852 337.484L242.846 337.446L242.841 337.408L242.835 337.37L242.83 337.333L242.825 337.295L242.819 337.257L242.814 337.219L242.808 337.181L242.803 337.143L242.797 337.105L242.792 337.067L242.786 337.03L242.781 336.992L242.776 336.954L242.77 336.916L242.765 336.878L242.759 336.84L242.754 336.802L242.748 336.764L242.743 336.727L242.737 336.689L242.732 336.651L242.727 336.613L242.721 336.575L242.716 336.537L242.71 336.499L242.705 336.462L242.699 336.424L242.694 336.386L242.688 336.348L242.683 336.31L242.678 336.272L242.672 336.234L242.667 336.196L242.661 336.159L242.656 336.121L242.65 336.083L242.645 336.045L242.639 336.007L242.634 335.969L242.629 335.931L242.623 335.894L242.618 335.856L242.612 335.818L242.607 335.78L242.601 335.742L242.596 335.704L242.59 335.666L242.585 335.628L242.58 335.591L242.574 335.553L242.569 335.515L242.563 335.477L242.558 335.439L242.552 335.401L242.547 335.363L242.542 335.325L242.536 335.288L242.531 335.25L242.525 335.212L242.52 335.174L242.514 335.136L242.509 335.098L242.503 335.06L242.498 335.023L242.493 334.985L242.487 334.947L242.482 334.909L242.476 334.871L242.471 334.833L242.465 334.795L242.46 334.757L242.454 334.72L242.449 334.682L242.444 334.644L242.438 334.606L242.433 334.568L242.427 334.53L242.422 334.492L242.416 334.455L242.411 334.417L242.405 334.379L242.4 334.341L242.395 334.303L242.389 334.265L242.384 334.227L242.378 334.189L242.373 334.152L242.367 334.114L242.362 334.076L242.356 334.038L242.351 334L242.346 333.962L242.34 333.924L242.335 333.887L242.329 333.849L242.324 333.811L242.318 333.773L242.313 333.735L242.307 333.697L242.302 333.659L242.297 333.621L242.291 333.584L242.286 333.546L242.28 333.508L242.275 333.47L242.269 333.432L242.264 333.394L242.259 333.356L242.253 333.318L242.248 333.281L242.242 333.243L242.237 333.205L242.231 333.167L242.226 333.129L242.22 333.091L242.215 333.053L242.21 333.016L242.204 332.978L242.199 332.94L242.193 332.902L242.188 332.864L242.182 332.826L242.177 332.788L242.171 332.75L242.166 332.713L242.161 332.675L242.155 332.637L242.15 332.599L242.144 332.561L242.139 332.523L242.133 332.485L242.128 332.448L242.122 332.41L242.117 332.372L242.112 332.334L242.106 332.296L242.101 332.258L242.095 332.22L242.09 332.182L242.084 332.145L242.079 332.107L242.073 332.069L242.068 332.031L242.063 331.993L242.057 331.955L242.052 331.917L242.046 331.88L242.041 331.842L242.035 331.804L242.03 331.766L242.024 331.728L242.019 331.69L242.014 331.652L242.008 331.614L242.003 331.577L241.997 331.539L241.992 331.501L241.986 331.463L241.981 331.425L241.976 331.387L241.97 331.349L241.965 331.311L241.959 331.274L241.954 331.236L241.948 331.198L241.943 331.16L241.937 331.122L241.932 331.084L241.927 331.046L241.921 331.009L241.916 330.971L241.91 330.933L241.905 330.895L241.899 330.857L241.894 330.819L241.888 330.781L241.883 330.743L241.878 330.706L241.872 330.668L241.867 330.63L241.861 330.592L241.856 330.554L241.85 330.516L241.845 330.478L241.839 330.441L241.834 330.403L241.829 330.365L241.823 330.327L241.818 330.289L241.812 330.251L241.807 330.213L241.801 330.175L241.796 330.138L241.79 330.1L241.785 330.062L241.78 330.024L241.774 329.986L241.769 329.948L241.763 329.91L241.758 329.872L241.752 329.835L241.747 329.797L241.741 329.759L241.736 329.721L241.731 329.683L241.725 329.645L241.72 329.607L241.714 329.57L241.709 329.532L241.703 329.494L241.698 329.456L241.693 329.418L241.687 329.38L241.682 329.342L241.676 329.304L241.671 329.267L241.665 329.229L241.66 329.191L241.654 329.153L241.649 329.115L241.644 329.077L241.638 329.039L241.633 329.002L241.627 328.964L241.622 328.926L241.616 328.888L241.611 328.85L241.605 328.812L241.6 328.774L241.595 328.736L241.589 328.699L241.584 328.661L241.578 328.623L241.573 328.585L241.567 328.547L241.562 328.509L241.556 328.471L241.551 328.434L241.546 328.396L241.54 328.358L241.535 328.32L241.529 328.282L241.524 328.244L241.518 328.206L241.513 328.168L241.507 328.131L241.502 328.093L241.497 328.055L241.491 328.017L241.486 327.979L241.48 327.941L241.475 327.903L241.469 327.865L241.464 327.828L241.458 327.79L241.453 327.752L241.448 327.714L241.442 327.676L241.437 327.638L241.431 327.6L241.426 327.563L241.42 327.525L241.415 327.487L241.41 327.449L241.404 327.411L241.399 327.373L241.393 327.335L241.388 327.297L241.382 327.26L241.377 327.222L241.371 327.184L241.366 327.146L241.361 327.108L241.355 327.07L241.35 327.032L241.344 326.995L241.339 326.957L241.333 326.919L241.328 326.881L241.322 326.843L241.317 326.805L241.312 326.767L241.306 326.729L241.301 326.692L241.295 326.654L241.29 326.616L241.284 326.578L241.279 326.54L241.273 326.502L241.268 326.464C241.036 324.848 240.803 323.232 240.57 321.616C239.871 316.769 239.172 311.922 238.493 307.065L238.493 307.065M237.152 346.845L238.493 307.065M238.493 307.065L238.492 307.061M238.493 307.065L238.492 307.061M238.492 307.061C238.322 305.876 237.828 304.711 236.486 304.122L238.492 307.061Z" fill="#647CAA" stroke="#647CAA" stroke-width="1.94352"/>
<path d="M228.518 346.142L228.518 346.141C229.535 346.003 230.443 345.611 231.006 344.785C231.555 343.981 231.637 342.968 231.484 341.905L231.48 341.877L231.476 341.85L231.472 341.823L231.468 341.796L231.464 341.769L231.46 341.742L231.457 341.715L231.453 341.688L231.449 341.661L231.445 341.634L231.441 341.607L231.437 341.579L231.433 341.552L231.429 341.525L231.425 341.498L231.421 341.471L231.418 341.444L231.414 341.417L231.41 341.39L231.406 341.363L231.402 341.336L231.398 341.309L231.394 341.282L231.39 341.254L231.386 341.227L231.383 341.2L231.379 341.173L231.375 341.146L231.371 341.119L231.367 341.092L231.363 341.065L231.359 341.038L231.355 341.011L231.351 340.984L231.348 340.956L231.344 340.929L231.34 340.902L231.336 340.875L231.332 340.848L231.328 340.821L231.324 340.794L231.32 340.767L231.316 340.74L231.313 340.713L231.309 340.686L231.305 340.659L231.301 340.632L231.297 340.604L231.293 340.577L231.289 340.55L231.285 340.523L231.281 340.496L231.277 340.469L231.274 340.442L231.27 340.415L231.266 340.388L231.262 340.361L231.258 340.334L231.254 340.307L231.25 340.279L231.246 340.252L231.242 340.225L231.239 340.198L231.235 340.171L231.231 340.144L231.227 340.117L231.223 340.09L231.219 340.063L231.215 340.036L231.211 340.009L231.207 339.982L231.204 339.955L231.2 339.927L231.196 339.9L231.192 339.873L231.188 339.846L231.184 339.819L231.18 339.792L231.176 339.765L231.172 339.738L231.169 339.711L231.165 339.684L231.161 339.657L231.157 339.63L231.153 339.603L231.149 339.576L231.145 339.548L231.141 339.521L231.137 339.494L231.134 339.467L231.13 339.44L231.126 339.413L231.122 339.386L231.118 339.359L231.114 339.332L231.11 339.305L231.106 339.278L231.102 339.251L231.098 339.224L231.095 339.197L231.091 339.17L231.087 339.142L231.083 339.115L231.079 339.088L231.075 339.061L231.071 339.034L231.067 339.007L231.063 338.98L231.06 338.953L231.056 338.926L231.052 338.899L231.048 338.872L231.044 338.845L231.04 338.818L231.036 338.791L231.032 338.763L231.028 338.736L231.025 338.709L231.021 338.682L231.017 338.655L231.013 338.628L231.009 338.601L231.005 338.574L231.001 338.547L230.997 338.52L230.993 338.493L230.99 338.466L230.986 338.439L230.982 338.412L230.978 338.385L230.974 338.358L230.97 338.33L230.966 338.303L230.962 338.276L230.958 338.249L230.955 338.222L230.951 338.195L230.947 338.168L230.943 338.141L230.939 338.114L230.935 338.087L230.931 338.06L230.927 338.033L230.923 338.006L230.92 337.979L230.916 337.952L230.912 337.925L230.908 337.897L230.904 337.87L230.9 337.843L230.896 337.816L230.892 337.789L230.888 337.762L230.885 337.735L230.881 337.708L230.877 337.681L230.873 337.654L230.869 337.627L230.865 337.6L230.861 337.573L230.857 337.546L230.853 337.519L230.85 337.492L230.846 337.465L230.842 337.437L230.838 337.41L230.834 337.383L230.83 337.356L230.826 337.329L230.822 337.302L230.818 337.275L230.815 337.248L230.811 337.221L230.807 337.194L230.803 337.167L230.799 337.14L230.795 337.113L230.791 337.086L230.787 337.059L230.783 337.032L230.78 337.005L230.776 336.977L230.772 336.95L230.768 336.923L230.764 336.896L230.76 336.869L230.756 336.842L230.752 336.815L230.748 336.788L230.745 336.761L230.741 336.734L230.737 336.707L230.733 336.68L230.729 336.653L230.725 336.626L230.721 336.599L230.717 336.572L230.713 336.545L230.71 336.517L230.706 336.49L230.702 336.463L230.698 336.436L230.694 336.409L230.69 336.382L230.686 336.355L230.682 336.328L230.678 336.301L230.675 336.274L230.671 336.247L230.667 336.22L230.663 336.193L230.659 336.166L230.655 336.139L230.651 336.112L230.647 336.085L230.643 336.058L230.64 336.03L230.636 336.003L230.632 335.976L230.628 335.949L230.624 335.922L230.62 335.895L230.616 335.868L230.612 335.841L230.608 335.814L230.605 335.787L230.601 335.76L230.597 335.733L230.593 335.706L230.589 335.679L230.585 335.652L230.581 335.625L230.577 335.598L230.573 335.571L230.57 335.544L230.566 335.516L230.562 335.489L230.558 335.462L230.554 335.435L230.55 335.408L230.546 335.381L230.542 335.354L230.538 335.327L230.535 335.3L230.531 335.273L230.527 335.246L230.523 335.219L230.519 335.192L230.515 335.165L230.511 335.138L230.507 335.111L230.503 335.084L230.5 335.057L230.496 335.029L230.492 335.002L230.488 334.975L230.484 334.948L230.48 334.921L230.476 334.894L230.472 334.867L230.468 334.84L230.465 334.813L230.461 334.786L230.457 334.759L230.453 334.732L230.449 334.705L230.445 334.678L230.441 334.651L230.437 334.624L230.434 334.597L230.43 334.57L230.426 334.543L230.422 334.515L230.418 334.488L230.414 334.461L230.41 334.434L230.406 334.407L230.402 334.38L230.399 334.353L230.395 334.326L230.391 334.299L230.387 334.272L230.383 334.245L230.379 334.218L230.375 334.191L230.371 334.164L230.367 334.137L230.364 334.11L230.36 334.083L230.356 334.056L230.352 334.028L230.348 334.001L230.344 333.974L230.34 333.947L230.336 333.92L230.332 333.893L230.329 333.866L230.325 333.839L230.321 333.812L230.317 333.785L230.313 333.758L230.309 333.731L230.305 333.704L230.301 333.677L230.297 333.65L230.294 333.623L230.29 333.596L230.286 333.569L230.282 333.541L230.278 333.514L230.274 333.487L230.27 333.46L230.266 333.433L230.262 333.406L230.259 333.379L230.255 333.352L230.251 333.325L230.247 333.298L230.243 333.271L230.239 333.244L230.235 333.217L230.231 333.19L230.227 333.163L230.224 333.136L230.22 333.109L230.216 333.082L230.212 333.054L230.208 333.027L230.204 333L230.2 332.973L230.196 332.946L230.192 332.919L230.189 332.892L230.185 332.865L230.181 332.838L230.177 332.811L230.173 332.784L230.169 332.757L230.165 332.73L230.161 332.703L230.157 332.676L230.154 332.649L230.15 332.622L230.146 332.594L230.142 332.567L230.138 332.54L230.134 332.513L230.13 332.486L230.126 332.459L230.122 332.432L230.119 332.405L230.115 332.378L230.111 332.351L230.107 332.324L230.103 332.297L230.099 332.27L230.095 332.243L230.091 332.216L230.087 332.189L230.084 332.162L230.08 332.134L230.076 332.107L230.072 332.08L230.068 332.053L230.064 332.026L230.06 331.999L230.056 331.972L230.052 331.945L230.049 331.918L230.045 331.891L230.041 331.864L230.037 331.837L230.033 331.81L230.029 331.783L230.025 331.756L230.021 331.729L230.017 331.701L230.014 331.674L230.01 331.647L230.006 331.62L230.002 331.593L229.998 331.566L229.994 331.539L229.99 331.512L229.986 331.485L229.982 331.458L229.979 331.431L229.975 331.404L229.971 331.377L229.967 331.35L229.963 331.323L229.959 331.296L229.955 331.268L229.951 331.241L229.947 331.214L229.944 331.187L229.94 331.16L229.936 331.133L229.932 331.106L229.928 331.079L229.924 331.052L229.92 331.025L229.916 330.998L229.912 330.971L229.909 330.944L229.905 330.917L229.901 330.89L229.897 330.862L229.893 330.835L229.889 330.808L229.885 330.781L229.881 330.754L229.877 330.727L229.873 330.7L229.87 330.673L229.866 330.646L229.862 330.619L229.858 330.592L229.854 330.565L229.85 330.538L229.846 330.511L229.842 330.483L229.838 330.456L229.835 330.429L229.831 330.402L229.827 330.375L229.823 330.348L229.819 330.321L229.815 330.294L229.811 330.267L229.807 330.24L229.803 330.213L229.8 330.186L229.796 330.159L229.792 330.132L229.788 330.104L229.784 330.077L229.78 330.05L229.776 330.023L229.772 329.996L229.768 329.969L229.765 329.942L229.761 329.915L229.757 329.888L229.753 329.861L229.749 329.834L229.745 329.807L229.741 329.78L229.737 329.752L229.733 329.725L229.73 329.698L229.726 329.671L229.722 329.644L229.718 329.617L229.714 329.59L229.71 329.563L229.706 329.536L229.702 329.509L229.698 329.482L229.695 329.455L229.691 329.428L229.687 329.4L229.683 329.373L229.679 329.346L229.675 329.319L229.671 329.292L229.667 329.265L229.663 329.238L229.659 329.211L229.656 329.184L229.652 329.157L229.648 329.13L229.644 329.103L229.64 329.076L229.636 329.048L229.632 329.021L229.628 328.994L229.624 328.967L229.621 328.94L229.617 328.913L229.613 328.886L229.609 328.859L229.605 328.832L229.601 328.805L229.597 328.778L229.593 328.75L229.589 328.723L229.586 328.696L229.582 328.669L229.578 328.642L229.574 328.615L229.57 328.588L229.566 328.561L229.562 328.534L229.558 328.507L229.554 328.48L229.55 328.453L229.547 328.425L229.543 328.398L229.539 328.371L229.535 328.344L229.531 328.317L229.527 328.29L229.523 328.263L229.519 328.236L229.515 328.209L229.512 328.182L229.508 328.155L229.504 328.127L229.5 328.1L229.496 328.073L229.492 328.046L229.491 328.039C228.827 323.418 228.165 318.81 227.515 314.202L227.515 314.202L227.514 314.193C227.355 313.134 226.991 312.187 226.239 311.571C225.465 310.936 224.483 310.816 223.463 310.971L223.463 310.971C222.476 311.121 221.604 311.532 221.066 312.353C220.544 313.149 220.462 314.144 220.612 315.191L220.62 315.245L220.628 315.3L220.636 315.354L220.643 315.408L220.651 315.462L220.659 315.516L220.667 315.57L220.674 315.624L220.682 315.678L220.69 315.732L220.698 315.787L220.706 315.841L220.713 315.895L220.721 315.949L220.729 316.003L220.737 316.057L220.744 316.111L220.752 316.165L220.76 316.219L220.768 316.273L220.776 316.328L220.783 316.382L220.791 316.436L220.799 316.49L220.807 316.544L220.814 316.598L220.822 316.652L220.83 316.706L220.838 316.76L220.846 316.815L220.853 316.869L220.861 316.923L220.869 316.977L220.877 317.031L220.884 317.085L220.892 317.139L220.9 317.193L220.908 317.247L220.916 317.302L220.923 317.356L220.931 317.41L220.939 317.464L220.947 317.518L220.954 317.572L220.962 317.626L220.97 317.68L220.978 317.734L220.986 317.789L220.993 317.843L221.001 317.897L221.009 317.951L221.017 318.005L221.024 318.059L221.032 318.113L221.04 318.167L221.048 318.221L221.056 318.275L221.063 318.33L221.071 318.384L221.079 318.438L221.087 318.492L221.094 318.546L221.102 318.6L221.11 318.654L221.118 318.708L221.126 318.762L221.133 318.817L221.141 318.871L221.149 318.925L221.157 318.979L221.164 319.033L221.172 319.087L221.18 319.141L221.188 319.195L221.195 319.249L221.203 319.304L221.211 319.358L221.219 319.412L221.227 319.466L221.234 319.52L221.242 319.574L221.25 319.628L221.258 319.682L221.265 319.736L221.273 319.791L221.281 319.845L221.289 319.899L221.297 319.953L221.304 320.007L221.312 320.061L221.32 320.115L221.328 320.169L221.335 320.223L221.343 320.278L221.351 320.332L221.359 320.386L221.367 320.44L221.374 320.494L221.382 320.548L221.39 320.602L221.398 320.656L221.405 320.71L221.413 320.764L221.421 320.819L221.429 320.873L221.437 320.927L221.444 320.981L221.452 321.035L221.46 321.089L221.468 321.143L221.475 321.197L221.483 321.251L221.491 321.306L221.499 321.36L221.507 321.414L221.514 321.468L221.522 321.522L221.53 321.576L221.538 321.63L221.545 321.684L221.553 321.738L221.561 321.793L221.569 321.847L221.577 321.901L221.584 321.955L221.592 322.009L221.6 322.063L221.608 322.117L221.615 322.171L221.623 322.225L221.631 322.28L221.639 322.334L221.647 322.388L221.654 322.442L221.662 322.496L221.67 322.55L221.678 322.604L221.685 322.658L221.693 322.712L221.701 322.766L221.709 322.821L221.717 322.875L221.724 322.929L221.732 322.983L221.74 323.037L221.748 323.091L221.755 323.145L221.763 323.199L221.771 323.253L221.779 323.308L221.787 323.362L221.794 323.416L221.802 323.47L221.81 323.524L221.818 323.578L221.825 323.632L221.833 323.686L221.841 323.74L221.849 323.795L221.856 323.849L221.864 323.903L221.872 323.957L221.88 324.011L221.888 324.065L221.895 324.119L221.903 324.173L221.911 324.227L221.919 324.282L221.926 324.336L221.934 324.39L221.942 324.444L221.95 324.498L221.958 324.552L221.965 324.606L221.973 324.66L221.981 324.714L221.989 324.768L221.996 324.823L222.004 324.877L222.012 324.931L222.02 324.985L222.028 325.039L222.035 325.093L222.043 325.147L222.051 325.201L222.059 325.255L222.066 325.31L222.074 325.364L222.082 325.418L222.09 325.472L222.098 325.526L222.105 325.58L222.113 325.634L222.121 325.688L222.129 325.742L222.136 325.797L222.144 325.851L222.152 325.905L222.16 325.959L222.168 326.013L222.175 326.067L222.183 326.121L222.191 326.175L222.199 326.229L222.206 326.284L222.214 326.338L222.222 326.392L222.23 326.446L222.238 326.5L222.245 326.554L222.253 326.608L222.261 326.662L222.269 326.716L222.276 326.771L222.284 326.825L222.292 326.879L222.3 326.933L222.308 326.987L222.315 327.041L222.323 327.095L222.331 327.149L222.339 327.203L222.346 327.257L222.354 327.312L222.362 327.366L222.37 327.42L222.378 327.474L222.385 327.528L222.393 327.582L222.401 327.636L222.409 327.69L222.416 327.744L222.424 327.799L222.432 327.853L222.44 327.907L222.447 327.961L222.455 328.015L222.463 328.069L222.471 328.123L222.479 328.177L222.486 328.231L222.494 328.286L222.502 328.34L222.51 328.394L222.517 328.448L222.525 328.502L222.533 328.556L222.541 328.61L222.549 328.664L222.556 328.718L222.564 328.773L222.572 328.827L222.58 328.881L222.587 328.935L222.595 328.989L222.603 329.043L222.611 329.097L222.619 329.151L222.626 329.205L222.634 329.259L222.642 329.314L222.65 329.368L222.657 329.422L222.665 329.476L222.673 329.53L222.681 329.584L222.689 329.638L222.696 329.692L222.704 329.746L222.712 329.801L222.72 329.855L222.727 329.909L222.735 329.963L222.743 330.017L222.751 330.071L222.759 330.125L222.766 330.179L222.774 330.233L222.782 330.288L222.79 330.342L222.797 330.396L222.805 330.45L222.813 330.504L222.821 330.558L222.829 330.612L222.836 330.666L222.844 330.72L222.852 330.775L222.86 330.829L222.867 330.883L222.875 330.937L222.883 330.991L222.891 331.045L222.899 331.099L222.906 331.153L222.914 331.207L222.922 331.262L222.93 331.316L222.937 331.37L222.945 331.424L222.953 331.478L222.961 331.532L222.969 331.586L222.976 331.64L222.984 331.694L222.992 331.748L223 331.803L223.007 331.857L223.015 331.911L223.023 331.965L223.031 332.019L223.039 332.073L223.046 332.127L223.054 332.181L223.062 332.235L223.07 332.29L223.077 332.344L223.085 332.398L223.093 332.452L223.101 332.506L223.108 332.56L223.116 332.614L223.124 332.668L223.132 332.722L223.14 332.777L223.147 332.831L223.155 332.885L223.163 332.939L223.171 332.993L223.178 333.047L223.186 333.101L223.194 333.155L223.202 333.209L223.21 333.264L223.217 333.318L223.225 333.372L223.233 333.426L223.241 333.48L223.248 333.534L223.256 333.588L223.264 333.642L223.272 333.696L223.28 333.75L223.287 333.805L223.295 333.859L223.303 333.913L223.311 333.967L223.318 334.021L223.326 334.075L223.334 334.129L223.342 334.183L223.35 334.237L223.357 334.292L223.365 334.346L223.373 334.4L223.381 334.454L223.388 334.508L223.396 334.562L223.404 334.616L223.412 334.67L223.42 334.724L223.427 334.779L223.435 334.833L223.443 334.887L223.451 334.941L223.458 334.995L223.466 335.049L223.474 335.103L223.482 335.157L223.49 335.211L223.497 335.266L223.505 335.32L223.513 335.374L223.521 335.428L223.528 335.482L223.536 335.536L223.544 335.59L223.552 335.644L223.56 335.698L223.567 335.752L223.575 335.807L223.583 335.861L223.591 335.915L223.598 335.969L223.606 336.023L223.614 336.077L223.622 336.131L223.63 336.185L223.637 336.239L223.645 336.294L223.653 336.348L223.661 336.402L223.668 336.456L223.676 336.51L223.684 336.564L223.692 336.618L223.699 336.672L223.707 336.726L223.715 336.781L223.723 336.835L223.731 336.889L223.738 336.943L223.746 336.997L223.754 337.051L223.762 337.105L223.769 337.159L223.777 337.213L223.785 337.268L223.793 337.322L223.801 337.376L223.808 337.43L223.816 337.484L223.824 337.538L223.832 337.592L223.839 337.646L223.847 337.7L223.855 337.755L223.863 337.809L223.871 337.863L223.878 337.917L223.886 337.971L223.894 338.025L223.902 338.079L223.909 338.133L223.917 338.187L223.925 338.241L223.933 338.296L223.941 338.35L223.948 338.404L223.956 338.458L223.964 338.512L223.972 338.566L223.979 338.62L223.987 338.674L223.995 338.728L224.003 338.783L224.011 338.837L224.018 338.891L224.026 338.945L224.034 338.999L224.042 339.053L224.049 339.107L224.057 339.161L224.065 339.215L224.073 339.27L224.081 339.324L224.088 339.378L224.096 339.432L224.104 339.486L224.112 339.54L224.119 339.594L224.127 339.648L224.135 339.702L224.143 339.757L224.151 339.811L224.158 339.865L224.166 339.919L224.174 339.973L224.182 340.027L224.189 340.081L224.197 340.135L224.205 340.189L224.213 340.243L224.221 340.298L224.228 340.352L224.236 340.406L224.244 340.46L224.252 340.514L224.259 340.568L224.267 340.622L224.275 340.676L224.283 340.73L224.291 340.785L224.298 340.839L224.306 340.893L224.314 340.947L224.322 341.001L224.329 341.055L224.337 341.109L224.345 341.163L224.353 341.217L224.36 341.272L224.368 341.326L224.376 341.38L224.384 341.434L224.392 341.488L224.399 341.542L224.407 341.596L224.415 341.65L224.423 341.704L224.43 341.759L224.438 341.813L224.446 341.867L224.454 341.921L224.462 341.975L224.469 342.029L224.477 342.083L224.485 342.137L224.493 342.191L224.5 342.245L224.508 342.3L224.516 342.354L224.524 342.408L224.532 342.462L224.539 342.516L224.547 342.57L224.555 342.624L224.563 342.678L224.57 342.732L224.578 342.787L224.586 342.841L224.594 342.895C224.744 343.939 225.099 344.871 225.822 345.49C226.57 346.129 227.524 346.276 228.518 346.142Z" fill="#647CAA" stroke="#647CAA" stroke-width="1.94352"/>
<path d="M72.7179 107.649C81.3266 106.281 89.2385 112.928 88.8317 121.154C88.4249 129.379 82.1248 162.136 84.536 208.008C85.2303 221.218 55.256 222.897 50.7045 206.335C45.5555 187.599 38.8977 113.024 72.7179 107.649Z" fill="#647CAA"/>
<path d="M72.7179 107.649C81.3266 106.281 89.2385 112.928 88.8317 121.154C88.4249 129.379 82.1248 162.136 84.536 208.008C85.2303 221.218 55.256 222.897 50.7045 206.335C45.5555 187.599 38.8977 113.024 72.7179 107.649Z" fill="url(#paint7_radial_719_10871)"/>
<path d="M72.7179 107.649C81.3266 106.281 89.2385 112.928 88.8317 121.154C88.4249 129.379 82.1248 162.136 84.536 208.008C85.2303 221.218 55.256 222.897 50.7045 206.335C45.5555 187.599 38.8977 113.024 72.7179 107.649Z" fill="url(#paint8_radial_719_10871)"/>
<path d="M319.615 72.8163C310.951 73.7727 305.077 82.2747 307.644 90.1002C310.211 97.9258 324.946 127.851 334.747 172.729C337.57 185.653 366.922 179.348 366.933 162.172C366.946 142.741 353.653 69.0593 319.615 72.8163Z" fill="#647CAA"/>
<path d="M319.615 72.8163C310.951 73.7727 305.077 82.2747 307.644 90.1002C310.211 97.9258 324.946 127.851 334.747 172.729C337.57 185.653 366.922 179.348 366.933 162.172C366.946 142.741 353.653 69.0593 319.615 72.8163Z" fill="url(#paint9_radial_719_10871)"/>
<path d="M326.409 133.517C339.373 132.542 352.194 136.756 362.05 145.234C371.907 153.711 377.992 165.757 378.968 178.721C379.943 191.685 375.728 204.505 367.251 214.362C358.774 224.219 346.728 230.304 333.764 231.28L330.086 182.398L326.409 133.517Z" fill="url(#paint10_radial_719_10871)"/>
<path d="M357.921 183.222C367.272 257.948 302.35 300.37 223.375 306.311C144.4 312.253 73.8615 280.022 71.9263 204.739C69.8646 124.532 142.042 62.7689 204.698 58.055C267.354 53.3411 347.959 103.61 357.921 183.222Z" fill="url(#paint11_radial_719_10871)"/>
<path d="M135.313 229.71C131.341 207.806 137.141 184.417 160.609 179.542C184.954 174.485 192.355 183.861 235.441 176.047C278.533 168.231 293.216 153.178 317.692 149.378C341.376 145.702 346.01 166.554 346.01 198.354C346.01 251.043 286.594 255.786 251.071 262.228C214.927 268.784 144.842 282.248 135.313 229.71Z" fill="url(#paint12_radial_719_10871)"/>
<path d="M135.313 229.71C131.341 207.806 137.141 184.417 160.609 179.542C184.954 174.485 192.355 183.861 235.441 176.047C278.533 168.231 293.216 153.178 317.692 149.378C341.376 145.702 346.01 166.554 346.01 198.354C346.01 251.043 286.594 255.786 251.071 262.228C214.927 268.784 144.842 282.248 135.313 229.71Z" fill="url(#paint13_radial_719_10871)"/>
<path fill-rule="evenodd" clip-rule="evenodd" d="M58.9698 250.834C54.5474 248.194 49.9276 243.923 48.1705 242.118C53.5423 265.216 72.407 284.886 102.193 285.753L196.893 288.51L197.104 281.243L102.405 278.486C81.1903 277.869 66.291 266.122 58.9698 250.834Z" fill="black"/>
<circle cx="208.582" cy="284.553" r="21.3889" transform="rotate(145.698 208.582 284.553)" fill="#647CAA"/>
<path d="M97.7009 264.893C85.007 267.701 71.7176 265.351 60.7563 258.36C49.7949 251.37 42.0595 240.311 39.2517 227.617C36.4439 214.923 38.7937 201.634 45.7843 190.673C52.7748 179.711 63.8334 171.976 76.5273 169.168L73.8959 183.34C68.4332 212.762 77.2682 243.03 97.7009 264.893Z" fill="url(#paint14_linear_719_10871)"/>
<path d="M97.7009 264.893C85.007 267.701 71.7176 265.351 60.7563 258.36C49.7949 251.37 42.0595 240.311 39.2517 227.617C36.4439 214.923 38.7937 201.634 45.7843 190.673C52.7748 179.711 63.8334 171.976 76.5273 169.168L73.8959 183.34C68.4332 212.762 77.2682 243.03 97.7009 264.893Z" fill="url(#paint15_radial_719_10871)"/>
<path d="M322.429 487.557C289.545 492.051 287.902 405.963 308.9 394.325C321.233 387.49 341.627 349.777 346.771 365.149C352.591 382.539 360.27 482.386 322.429 487.557Z" fill="#647CAA"/>
<path d="M322.429 487.557C289.545 492.051 287.902 405.963 308.9 394.325C321.233 387.49 341.627 349.777 346.771 365.149C352.591 382.539 360.27 482.386 322.429 487.557Z" fill="url(#paint16_radial_719_10871)"/>
<path d="M177.556 316.696C178.532 325.335 180.462 329.514 190.449 335.72" stroke="url(#paint17_radial_719_10871)" stroke-width="30" stroke-linecap="round"/>
<path d="M172.092 357.885C220.247 365.036 270.351 339.113 293.23 326.616" stroke="url(#paint18_radial_719_10871)" stroke-width="60" stroke-linecap="round"/>
<path d="M73.1291 311.674C66.6538 303.512 55.1254 302.195 47.1976 308.485C40.7961 313.564 38.8799 322.27 41.7528 329.701C35.1691 325.216 26.3759 325.255 19.9744 330.333C12.0451 336.624 10.5676 347.963 17.0453 356.127C20.3138 360.247 24.2645 361.855 29.3775 362.874L72.5715 368.518L76.8698 325.194C77.0427 319.981 76.3951 315.79 73.1291 311.674Z" fill="#EB5757"/>
<path d="M428.823 297.23C433.328 288.437 429.941 277.966 421.4 273.59C414.502 270.056 406.233 271.819 400.945 277.216C402.234 269.771 398.75 262.194 391.852 258.661C383.309 254.284 372.94 257.458 368.433 266.254C366.159 270.693 366.321 274.735 367.448 279.549L379.526 319.057L418.618 305.766C423.186 303.87 426.55 301.666 428.823 297.23Z" fill="#EB5757"/>
<path d="M196.826 203.93L223.747 219.835M223.747 219.835L209.35 243.02M223.747 219.835L193.418 227.19" stroke="black" stroke-width="10" stroke-linecap="round" stroke-linejoin="round"/>
<path d="M299.902 221.841L278 206.835M278 206.835L295.798 180.411M278 206.835L305.417 199.956" stroke="black" stroke-width="10" stroke-linecap="round" stroke-linejoin="round"/>
<path d="M274.847 230.489C264.632 238.727 252.525 237.397 243.726 234.35M243.726 234.35C244.707 231.995 244.611 229.992 243.726 225.09M243.726 234.35C243.218 235.57 241.529 239.116 237.375 242.301" stroke="black" stroke-width="6" stroke-linecap="round"/>
<defs>
<radialGradient id="paint0_radial_719_10871" cx="0" cy="0" r="1" gradientUnits="userSpaceOnUse" gradientTransform="translate(142.477 300.802) rotate(59.1787) scale(39.6308 36.7707)">
<stop stop-color="white"/>
<stop offset="1" stop-color="#F1F4F9"/>
</radialGradient>
<radialGradient id="paint1_radial_719_10871" cx="0" cy="0" r="1" gradientUnits="userSpaceOnUse" gradientTransform="translate(231.803 350.581) rotate(172.244) scale(86.9398 61.2852)">
<stop stop-color="white"/>
<stop offset="0.298735" stop-color="#F8F8FA"/>
<stop offset="1" stop-color="#F0F4F9"/>
</radialGradient>
<radialGradient id="paint2_radial_719_10871" cx="0" cy="0" r="1" gradientUnits="userSpaceOnUse" gradientTransform="translate(236.01 480.775) rotate(-81.8723) scale(97.0114 94.4776)">
<stop stop-color="white"/>
<stop offset="1" stop-color="#F2F5FA"/>
</radialGradient>
<radialGradient id="paint3_radial_719_10871" cx="0" cy="0" r="1" gradientUnits="userSpaceOnUse" gradientTransform="translate(236.648 480.967) rotate(-81.9121) scale(93.6077 91.8194)">
<stop stop-color="white"/>
<stop offset="0.812713" stop-color="#F2F5FA"/>
<stop offset="1" stop-color="#E5E9EF"/>
</radialGradient>
<radialGradient id="paint4_radial_719_10871" cx="0" cy="0" r="1" gradientUnits="userSpaceOnUse" gradientTransform="translate(257.411 332.506) rotate(53.1644) scale(99.7871 107.958)">
<stop stop-color="#F7FEFF"/>
<stop offset="0.653732" stop-color="#CDD5E2"/>
<stop offset="1" stop-color="#A2ABBA"/>
</radialGradient>
<radialGradient id="paint5_radial_719_10871" cx="0" cy="0" r="1" gradientUnits="userSpaceOnUse" gradientTransform="translate(264.07 339.387) rotate(52.2802) scale(96.2803 105.097)">
<stop offset="0.45159" stop-color="white"/>
<stop offset="0.589668" stop-color="#F2F5FA"/>
<stop offset="1" stop-color="#DEE2E9"/>
</radialGradient>
<radialGradient id="paint6_radial_719_10871" cx="0" cy="0" r="1" gradientUnits="userSpaceOnUse" gradientTransform="translate(224.994 308.097) rotate(50.4039) scale(86.7297 131.113)">
<stop offset="0.00520833" stop-color="#647CAA"/>
<stop offset="0.668005" stop-color="#647CAA"/>
</radialGradient>
<radialGradient id="paint7_radial_719_10871" cx="0" cy="0" r="1" gradientUnits="userSpaceOnUse" gradientTransform="translate(64.0201 148.927) rotate(85.1865) scale(66.3521 30.2686)">
<stop stop-color="#F7FEFF"/>
<stop offset="0.653732" stop-color="#CDD5E2"/>
<stop offset="1" stop-color="#A2ABBA"/>
</radialGradient>
<radialGradient id="paint8_radial_719_10871" cx="0" cy="0" r="1" gradientUnits="userSpaceOnUse" gradientTransform="translate(62.6546 141.101) rotate(84.6433) scale(74.2676 34.678)">
<stop stop-color="white"/>
<stop offset="0.653732" stop-color="#F2F5FA"/>
<stop offset="1" stop-color="#DEE2E9"/>
</radialGradient>
<radialGradient id="paint9_radial_719_10871" cx="0" cy="0" r="1" gradientUnits="userSpaceOnUse" gradientTransform="translate(338.163 102.418) rotate(80.0281) scale(74.2676 34.678)">
<stop stop-color="white"/>
<stop offset="0.653732" stop-color="#F2F5FA"/>
<stop offset="1" stop-color="#DEE2E9"/>
</radialGradient>
<radialGradient id="paint10_radial_719_10871" cx="0" cy="0" r="1" gradientUnits="userSpaceOnUse" gradientTransform="translate(362.638 165.885) rotate(157.105) scale(67.3824 78.5932)">
<stop offset="0.00520833" stop-color="#647CAA"/>
<stop offset="1" stop-color="#647CAA"/>
</radialGradient>
<radialGradient id="paint11_radial_719_10871" cx="0" cy="0" r="1" gradientUnits="userSpaceOnUse" gradientTransform="translate(174.627 137.246) rotate(61.1356) scale(181.202 226.907)">
<stop stop-color="white"/>
<stop offset="0.653732" stop-color="#F2F5FA"/>
<stop offset="1" stop-color="#DEE2E9"/>
</radialGradient>
<radialGradient id="paint12_radial_719_10871" cx="0" cy="0" r="1" gradientUnits="userSpaceOnUse" gradientTransform="translate(173.978 203.186) rotate(13.6382) scale(177.233 443.638)">
<stop offset="0.183433" stop-color="white"/>
<stop offset="1" stop-color="white" stop-opacity="0"/>
</radialGradient>
<radialGradient id="paint13_radial_719_10871" cx="0" cy="0" r="1" gradientUnits="userSpaceOnUse" gradientTransform="translate(206.677 222.398) rotate(5.90965) scale(120.005 193.583)">
<stop stop-color="#647CAA"/>
<stop offset="1" stop-color="#647CAA"/>
</radialGradient>
<linearGradient id="paint14_linear_719_10871" x1="97.0709" y1="214.828" x2="39.2519" y2="227.617" gradientUnits="userSpaceOnUse">
<stop offset="0.260417" stop-color="white"/>
<stop offset="1" stop-color="white"/>
</linearGradient>
<radialGradient id="paint15_radial_719_10871" cx="0" cy="0" r="1" gradientUnits="userSpaceOnUse" gradientTransform="translate(56.8417 197.283) rotate(60.1247) scale(46.0098 53.6648)">
<stop offset="0.00520833" stop-color="#647CAA"/>
<stop offset="1" stop-color="#647CAA"/>
</radialGradient>
<radialGradient id="paint16_radial_719_10871" cx="0" cy="0" r="1" gradientUnits="userSpaceOnUse" gradientTransform="translate(316.692 485.272) rotate(-81.2273) scale(97.0678 94.4226)">
<stop stop-color="white"/>
<stop offset="0.812713" stop-color="#F2F5FA"/>
<stop offset="1" stop-color="#E5E9EF"/>
</radialGradient>
<radialGradient id="paint17_radial_719_10871" cx="0" cy="0" r="1" gradientUnits="userSpaceOnUse" gradientTransform="translate(180.887 305.927) rotate(59.1787) scale(39.6308 36.7707)">
<stop stop-color="white"/>
<stop offset="1" stop-color="#F2F5FA"/>
</radialGradient>
<radialGradient id="paint18_radial_719_10871" cx="0" cy="0" r="1" gradientUnits="userSpaceOnUse" gradientTransform="translate(201.553 367.44) rotate(-16.3872) scale(122.693 86.488)">
<stop stop-color="white"/>
<stop offset="0.777499" stop-color="#F2F5FA"/>
</radialGradient>
</defs>
</svg>
