<svg width="611" height="442" viewBox="0 0 611 442" fill="none" xmlns="http://www.w3.org/2000/svg">
<path d="M142.82 354.025C128.705 266.304 87.8828 297.355 91.9757 351.742" stroke="url(#paint0_radial_719_10901)" stroke-width="73.767" stroke-linecap="round"/>
<path d="M204.262 371.934C187.398 378.591 68.0501 383.235 36.9986 375.291" stroke="url(#paint1_radial_719_10901)" stroke-width="73.767" stroke-linecap="round"/>
<path d="M211.979 274.339C204.464 274.339 185.087 286.237 180.281 291.046" stroke="#647CAA" stroke-width="73.767" stroke-linecap="round"/>
<path d="M211.979 274.339C204.464 274.339 185.087 286.237 180.281 291.046" stroke="url(#paint2_radial_719_10901)" stroke-width="73.767" stroke-linecap="round"/>
<path d="M315.624 360.033C343.923 368.339 366.996 379.6 386.742 372.568C404.508 366.241 409.344 278.574 428.31 337.281" stroke="#647CAA" stroke-width="73.767" stroke-linecap="round"/>
<path d="M315.624 360.033C343.923 368.339 366.996 379.6 386.742 372.568C404.508 366.241 409.344 278.574 428.31 337.281" stroke="url(#paint3_radial_719_10901)" stroke-width="73.767" stroke-linecap="round"/>
<path d="M155.852 396.07C215.005 441.305 349.547 360.501 363.466 341.557C395.168 320.679 398.261 325.319 259.079 287.044C119.896 248.769 96.6989 350.835 155.852 396.07Z" fill="url(#paint4_radial_719_10901)"/>
<path d="M272.393 284.287C232.798 256.321 184.203 311.116 202.874 355.851C205.736 362.709 211.507 368.884 222.111 374.274C286.458 406.981 365.933 345.189 303.87 308.332C301.287 306.798 298.689 304.973 296.095 302.797C287.632 295.699 279.754 289.486 272.393 284.287Z" fill="#647CAA"/>
<path d="M272.393 284.287C232.798 256.321 184.203 311.116 202.874 355.851C205.736 362.709 211.507 368.884 222.111 374.274C286.458 406.981 365.933 345.189 303.87 308.332C301.287 306.798 298.689 304.973 296.095 302.797C287.632 295.699 279.754 289.486 272.393 284.287Z" fill="url(#paint5_radial_719_10901)"/>
<path d="M228.309 351.368L228.31 351.366C232.201 344.47 236.026 337.55 239.855 330.622C241.292 328.021 242.73 325.419 244.172 322.816C247.618 316.599 251.056 310.397 254.478 304.188L254.48 304.186C255.111 303.047 255.742 301.905 256.374 300.76C257.642 298.464 258.914 296.161 260.198 293.867L260.201 293.863C260.774 292.851 261.58 292.077 262.6 291.718C263.63 291.356 264.723 291.473 265.747 291.954L265.747 291.954L265.751 291.956C267.07 292.582 268.141 293.449 268.55 294.726C268.959 296.003 268.594 297.336 267.88 298.624L267.818 298.735L267.757 298.847L267.695 298.958L267.634 299.069L267.572 299.18L267.51 299.291L267.449 299.402L267.387 299.513L267.326 299.624L267.264 299.735L267.203 299.846L267.141 299.957L267.079 300.068L267.018 300.179L266.956 300.291L266.895 300.402L266.833 300.513L266.772 300.624L266.71 300.735L266.648 300.846L266.587 300.957L266.525 301.068L266.464 301.179L266.402 301.29L266.341 301.401L266.279 301.512L266.218 301.624L266.156 301.735L266.094 301.846L266.033 301.957L265.971 302.068L265.91 302.179L265.848 302.29L265.787 302.401L265.725 302.512L265.663 302.623L265.602 302.734L265.54 302.845L265.479 302.957L265.417 303.068L265.356 303.179L265.294 303.29L265.232 303.401L265.171 303.512L265.109 303.623L265.048 303.734L264.986 303.845L264.925 303.956L264.863 304.067L264.801 304.179L264.74 304.29L264.678 304.401L264.617 304.512L264.555 304.623L264.494 304.734L264.432 304.845L264.37 304.956L264.309 305.067L264.247 305.178L264.186 305.289L264.124 305.401L264.062 305.512L264.001 305.623L263.939 305.734L263.878 305.845L263.816 305.956L263.755 306.067L263.693 306.178L263.631 306.289L263.57 306.4L263.508 306.512L263.447 306.623L263.385 306.734L263.324 306.845L263.262 306.956L263.2 307.067L263.139 307.178L263.077 307.289L263.016 307.4L262.954 307.511L262.893 307.622L262.831 307.734L262.769 307.845L262.708 307.956L262.646 308.067L262.585 308.178L262.523 308.289L262.461 308.4L262.4 308.511L262.338 308.622L262.277 308.733L262.215 308.845L262.154 308.956L262.092 309.067L262.03 309.178L261.969 309.289L261.907 309.4L261.846 309.511L261.784 309.622L261.723 309.733L261.661 309.845L261.599 309.956L261.538 310.067L261.476 310.178L261.415 310.289L261.353 310.4L261.291 310.511L261.23 310.622L261.168 310.733L261.107 310.844L261.045 310.956L260.984 311.067L260.922 311.178L260.86 311.289L260.799 311.4L260.737 311.511L260.676 311.622L260.614 311.733L260.553 311.844L260.491 311.955L260.429 312.067L260.368 312.178L260.306 312.289L260.245 312.4L260.183 312.511L260.121 312.622L260.06 312.733L259.998 312.844L259.937 312.955L259.875 313.067L259.814 313.178L259.752 313.289L259.69 313.4L259.629 313.511L259.567 313.622L259.506 313.733L259.444 313.844L259.382 313.955L259.321 314.067L259.259 314.178L259.198 314.289L259.136 314.4L259.075 314.511L259.013 314.622L258.951 314.733L258.89 314.844L258.828 314.955L258.767 315.067L258.705 315.178L258.643 315.289L258.582 315.4L258.52 315.511L258.459 315.622L258.397 315.733L258.336 315.844L258.274 315.955L258.212 316.067L258.151 316.178L258.089 316.289L258.028 316.4L257.966 316.511L257.904 316.622L257.843 316.733L257.781 316.844L257.72 316.955L257.658 317.067L257.596 317.178L257.535 317.289L257.473 317.4L257.412 317.511L257.35 317.622L257.289 317.733L257.227 317.844L257.165 317.955L257.104 318.067L257.042 318.178L256.981 318.289L256.919 318.4L256.857 318.511L256.796 318.622L256.734 318.733L256.673 318.844L256.611 318.955L256.55 319.067L256.488 319.178L256.426 319.289L256.365 319.4L256.303 319.511L256.242 319.622L256.18 319.733L256.118 319.844L256.057 319.956L255.995 320.067L255.934 320.178L255.872 320.289L255.81 320.4L255.749 320.511L255.687 320.622L255.626 320.733L255.564 320.844L255.503 320.956L255.441 321.067L255.379 321.178L255.318 321.289L255.256 321.4L255.195 321.511L255.133 321.622L255.071 321.733L255.01 321.845L254.948 321.956L254.887 322.067L254.825 322.178L254.763 322.289L254.702 322.4L254.64 322.511L254.579 322.622L254.517 322.733L254.456 322.845L254.394 322.956L254.332 323.067L254.271 323.178L254.209 323.289L254.148 323.4L254.086 323.511L254.024 323.622L253.963 323.734L253.901 323.845L253.84 323.956L253.778 324.067L253.717 324.178L253.655 324.289L253.593 324.4L253.532 324.511L253.47 324.622L253.409 324.734L253.347 324.845L253.285 324.956L253.224 325.067L253.162 325.178L253.101 325.289L253.039 325.4L252.977 325.511L252.916 325.623L252.854 325.734L252.793 325.845L252.731 325.956L252.67 326.067L252.608 326.178L252.546 326.289L252.485 326.4L252.423 326.511L252.362 326.623L252.3 326.734L252.238 326.845L252.177 326.956L252.115 327.067L252.054 327.178L251.992 327.289L251.93 327.4L251.869 327.512L251.807 327.623L251.746 327.734L251.684 327.845L251.622 327.956L251.561 328.067L251.499 328.178L251.438 328.289L251.376 328.4L251.315 328.512L251.253 328.623L251.191 328.734L251.13 328.845L251.068 328.956L251.007 329.067L250.945 329.178L250.883 329.289L250.822 329.401L250.76 329.512L250.699 329.623L250.637 329.734L250.575 329.845L250.514 329.956L250.452 330.067L250.391 330.178L250.329 330.289L250.268 330.401L250.206 330.512L250.144 330.623L250.083 330.734L250.021 330.845L249.96 330.956L249.898 331.067L249.836 331.178L249.775 331.29L249.713 331.401L249.652 331.512L249.59 331.623L249.529 331.734L249.467 331.845L249.405 331.956L249.344 332.067L249.282 332.178L249.221 332.29L249.159 332.401L249.097 332.512L249.036 332.623L248.974 332.734L248.913 332.845L248.851 332.956L248.789 333.067L248.728 333.179L248.666 333.29L248.605 333.401L248.543 333.512L248.482 333.623L248.42 333.734L248.358 333.845L248.297 333.956L248.235 334.067L248.174 334.179L248.112 334.29L248.05 334.401L247.989 334.512L247.927 334.623L247.866 334.734L247.804 334.845L247.742 334.956L247.681 335.067L247.619 335.179L247.558 335.29L247.496 335.401L247.435 335.512L247.373 335.623L247.311 335.734L247.25 335.845L247.188 335.956L247.127 336.068L247.065 336.179L247.003 336.29L246.942 336.401L246.88 336.512L246.819 336.623L246.757 336.734L246.696 336.845L246.634 336.956L246.572 337.068L246.511 337.179L246.449 337.29L246.388 337.401L246.326 337.512L246.264 337.623L246.203 337.734L246.141 337.845L246.08 337.956L246.018 338.068L245.956 338.179L245.895 338.29L245.833 338.401L245.772 338.512L245.71 338.623L245.649 338.734L245.587 338.845L245.525 338.956L245.464 339.068L245.402 339.179L245.341 339.29L245.279 339.401L245.217 339.512L245.156 339.623L245.094 339.734L245.033 339.845L244.971 339.956L244.91 340.068L244.848 340.179L244.786 340.29L244.725 340.401L244.663 340.512L244.602 340.623L244.54 340.734L244.478 340.845L244.417 340.956L244.355 341.068L244.294 341.179L244.232 341.29L244.171 341.401L244.109 341.512L244.047 341.623L243.986 341.734L243.924 341.845L243.863 341.956L243.801 342.067L243.739 342.179L243.678 342.29L243.616 342.401L243.555 342.512L243.493 342.623L243.432 342.734L243.37 342.845L243.308 342.956L243.247 343.067L243.185 343.179L243.124 343.29L243.062 343.401L243.001 343.512L242.939 343.623L242.877 343.734L242.816 343.845L242.754 343.956L242.693 344.067L242.631 344.178L242.569 344.29L242.508 344.401L242.446 344.512L242.385 344.623L242.323 344.734L242.262 344.845L242.2 344.956L242.138 345.067L242.077 345.178L242.015 345.29L241.954 345.401L241.892 345.512L241.831 345.623L241.769 345.734L241.707 345.845L241.646 345.956L241.584 346.067L241.523 346.178L241.461 346.289L241.399 346.401L241.338 346.512L241.276 346.623L241.215 346.734L241.153 346.845L241.092 346.956L241.03 347.067L240.968 347.178L240.907 347.289L240.845 347.4L240.784 347.511L240.722 347.623L240.661 347.734L240.599 347.845L240.537 347.956L240.476 348.067L240.414 348.178L240.353 348.289L240.291 348.4L240.23 348.511L240.168 348.622L240.106 348.734L240.045 348.845L239.983 348.956L239.922 349.067L239.86 349.178L239.798 349.289L239.737 349.4L239.675 349.511L239.614 349.622L239.552 349.733L239.491 349.844L239.429 349.956L239.367 350.067L239.306 350.178L239.244 350.289L239.183 350.4L239.121 350.511L239.06 350.622L238.998 350.733L238.936 350.844L238.875 350.955L238.813 351.066L238.752 351.178L238.69 351.289L238.629 351.4L238.567 351.511L238.505 351.622L238.444 351.733L238.382 351.844L238.321 351.955L238.259 352.066L238.198 352.177L238.136 352.288L238.074 352.399L238.013 352.511L237.951 352.622L237.89 352.733L237.828 352.844L237.767 352.955L237.705 353.066L237.643 353.177L237.582 353.288L237.52 353.399L237.459 353.51L237.397 353.621L237.336 353.732L237.274 353.844L237.213 353.955L237.151 354.066L237.089 354.177L237.028 354.288L236.966 354.399L236.905 354.51L236.843 354.621L236.782 354.732L236.72 354.843L236.658 354.954L236.597 355.065L236.535 355.176L236.474 355.288L236.412 355.399L236.351 355.51C236.323 355.56 236.291 355.619 236.257 355.683C236.131 355.916 235.967 356.222 235.782 356.489L235.778 356.496L235.773 356.502C234.966 357.636 233.761 358.339 232.242 358.221L232.235 358.22C230.875 358.105 229.398 357.417 228.487 356.227C227.506 354.946 227.279 353.205 228.309 351.368Z" fill="#647CAA" stroke="#647CAA" stroke-width="2.39772"/>
<path d="M253.96 356.022L253.961 356.019C256.619 351.19 259.291 346.369 261.964 341.546L261.994 341.491L262.024 341.437L262.055 341.383L262.085 341.328L262.115 341.274L262.145 341.22L262.175 341.166L262.205 341.111L262.235 341.057L262.265 341.003L262.295 340.948L262.325 340.894L262.356 340.84L262.386 340.785L262.416 340.731L262.446 340.677L262.476 340.623L262.506 340.568L262.536 340.514L262.566 340.46L262.596 340.405L262.626 340.351L262.657 340.297L262.687 340.242L262.717 340.188L262.747 340.134L262.777 340.079L262.807 340.025L262.837 339.971L262.867 339.917L262.897 339.862L262.927 339.808L262.958 339.754L262.988 339.699L263.018 339.645L263.048 339.591L263.078 339.536L263.108 339.482L263.138 339.428L263.168 339.374L263.198 339.319L263.228 339.265L263.258 339.211L263.289 339.156L263.319 339.102L263.349 339.048L263.379 338.993L263.409 338.939L263.439 338.885L263.469 338.83L263.499 338.776L263.529 338.722L263.559 338.668L263.59 338.613L263.62 338.559L263.65 338.505L263.68 338.45L263.71 338.396L263.74 338.342L263.77 338.287L263.8 338.233L263.83 338.179L263.86 338.125L263.891 338.07L263.921 338.016L263.951 337.962L263.981 337.907L264.011 337.853L264.041 337.799L264.071 337.744L264.101 337.69L264.131 337.636L264.161 337.581L264.192 337.527L264.222 337.473L264.252 337.419L264.282 337.364L264.312 337.31L264.342 337.256L264.372 337.201L264.402 337.147L264.432 337.093L264.462 337.038L264.493 336.984L264.523 336.93L264.553 336.875L264.583 336.821L264.613 336.767L264.643 336.713L264.673 336.658L264.703 336.604L264.733 336.55L264.763 336.495L264.794 336.441L264.824 336.387L264.854 336.332L264.884 336.278L264.914 336.224L264.944 336.169L264.974 336.115L265.004 336.061L265.034 336.007L265.064 335.952L265.095 335.898L265.125 335.844L265.155 335.789L265.185 335.735L265.215 335.681L265.245 335.626L265.275 335.572L265.305 335.518L265.335 335.463L265.365 335.409L265.396 335.355L265.426 335.301L265.456 335.246L265.486 335.192L265.516 335.138L265.546 335.083L265.576 335.029L265.606 334.975L265.636 334.92L265.666 334.866L265.697 334.812L265.727 334.757L265.757 334.703L265.787 334.649L265.817 334.595L265.847 334.54L265.877 334.486L265.907 334.432L265.937 334.377L265.967 334.323L265.998 334.269L266.028 334.214L266.058 334.16L266.088 334.106L266.118 334.051L266.148 333.997L266.178 333.943L266.208 333.889L266.238 333.834L266.269 333.78L266.299 333.726L266.329 333.671L266.359 333.617L266.389 333.563L266.419 333.508L266.449 333.454L266.479 333.4L266.509 333.345L266.539 333.291L266.57 333.237L266.6 333.182L266.63 333.128L266.66 333.074L266.69 333.02L266.72 332.965L266.75 332.911L266.78 332.857L266.81 332.802L266.84 332.748L266.871 332.694L266.901 332.639L266.931 332.585L266.961 332.531L266.991 332.476L267.021 332.422L267.051 332.368L267.081 332.313L267.111 332.259L267.141 332.205L267.172 332.151L267.202 332.096L267.232 332.042L267.262 331.988L267.292 331.933L267.322 331.879L267.352 331.825L267.382 331.77L267.412 331.716L267.443 331.662L267.473 331.607L267.503 331.553L267.533 331.499L267.563 331.444L267.593 331.39L267.623 331.336L267.653 331.282L267.683 331.227L267.713 331.173L267.744 331.119L267.774 331.064L267.804 331.01L267.834 330.956L267.864 330.901L267.894 330.847L267.924 330.793L267.954 330.738L267.984 330.684L268.015 330.63L268.045 330.575L268.075 330.521L268.105 330.467L268.135 330.412L268.165 330.358L268.195 330.304L268.225 330.25L268.255 330.195L268.285 330.141L268.316 330.087L268.346 330.032L268.376 329.978L268.406 329.924L268.436 329.869L268.466 329.815L268.496 329.761L268.526 329.706L268.556 329.652L268.587 329.598L268.617 329.543L268.647 329.489L268.677 329.435L268.707 329.38L268.737 329.326L268.767 329.272L268.797 329.217L268.827 329.163L268.858 329.109L268.888 329.054L268.918 329L268.948 328.946L268.978 328.892L269.008 328.837L269.038 328.783L269.068 328.729L269.098 328.674L269.128 328.62L269.159 328.566L269.189 328.511L269.219 328.457L269.249 328.403L269.279 328.348L269.309 328.294L269.339 328.24L269.369 328.185L269.399 328.131L269.43 328.077L269.46 328.022L269.49 327.968L269.52 327.914L269.55 327.859L269.58 327.805L269.61 327.751L269.64 327.696L269.67 327.642L269.701 327.588L269.731 327.533L269.761 327.479L269.791 327.425L269.821 327.37L269.851 327.316L269.881 327.262L269.911 327.207L269.941 327.153L269.972 327.099L270.002 327.045L270.032 326.99L270.062 326.936L270.092 326.882L270.122 326.827L270.152 326.773L270.182 326.719L270.212 326.664L270.243 326.61L270.273 326.556L270.303 326.501L270.333 326.447L270.363 326.393L270.393 326.338L270.423 326.284L270.453 326.23L270.483 326.175L270.514 326.121L270.544 326.067L270.574 326.012L270.604 325.958L270.634 325.904L270.664 325.849L270.694 325.795L270.724 325.741L270.754 325.686L270.785 325.632L270.815 325.578L270.845 325.523L270.875 325.469L270.905 325.415L270.935 325.36L270.965 325.306L270.995 325.252L271.026 325.197L271.056 325.143L271.086 325.089L271.116 325.034L271.146 324.98L271.176 324.926L271.206 324.871L271.236 324.817L271.266 324.763L271.297 324.708L271.327 324.654L271.357 324.6L271.387 324.545L271.417 324.491L271.447 324.437L271.477 324.382L271.507 324.328L271.537 324.274L271.568 324.219L271.598 324.165L271.628 324.111L271.658 324.056L271.688 324.002L271.718 323.948L271.748 323.893L271.778 323.839L271.809 323.785L271.839 323.73L271.869 323.676L271.899 323.622L271.929 323.567L271.959 323.513L271.989 323.459L272.019 323.404L272.049 323.35L272.08 323.296L272.11 323.241L272.14 323.187L272.17 323.132L272.2 323.078L272.23 323.024L272.26 322.969L272.29 322.915L272.321 322.861L272.351 322.806L272.381 322.752L272.411 322.698L272.441 322.643L272.471 322.589L272.501 322.535L272.531 322.48L272.562 322.426L272.592 322.372L272.622 322.317L272.652 322.263L272.682 322.209L272.712 322.154L272.742 322.1L272.772 322.046L272.802 321.991L272.833 321.937L272.863 321.883L272.893 321.828L272.923 321.774L272.953 321.72L272.983 321.665L273.013 321.611L273.043 321.556L273.074 321.502L273.104 321.448L273.134 321.393L273.164 321.339L273.194 321.285L273.224 321.23L273.254 321.176L273.284 321.122L273.315 321.067L273.345 321.013L273.375 320.959L273.405 320.904L273.435 320.85L273.465 320.796L273.495 320.741L273.525 320.687L273.556 320.633L273.586 320.578L273.616 320.524L273.646 320.469L273.676 320.415L273.706 320.361L273.736 320.306L273.766 320.252L273.797 320.198L273.827 320.143L273.857 320.089L273.887 320.035L273.917 319.98L273.947 319.926L273.977 319.872L274.007 319.817L274.038 319.763L274.068 319.709L274.098 319.654L274.128 319.6L274.158 319.545L274.188 319.491L274.218 319.437L274.248 319.382L274.279 319.328L274.309 319.274L274.339 319.219L274.369 319.165L274.399 319.111L274.429 319.056L274.459 319.002L274.49 318.948L274.52 318.893L274.55 318.839L274.58 318.784L274.61 318.73L274.64 318.676L274.67 318.621L274.7 318.567L274.731 318.513L274.761 318.458L274.791 318.404L274.821 318.35L274.851 318.295L274.881 318.241L274.911 318.186L274.941 318.132L274.972 318.078L275.002 318.023L275.032 317.969L275.062 317.915L275.092 317.86L275.122 317.806L275.152 317.752L275.183 317.697L275.213 317.643L275.243 317.588L275.273 317.534L275.303 317.48L275.333 317.425L275.363 317.371L275.393 317.317L275.424 317.262L275.454 317.208L275.484 317.153L275.514 317.099L275.544 317.045L275.574 316.99L275.604 316.936L275.635 316.882L275.665 316.827L275.695 316.773L275.725 316.719L275.755 316.664L275.785 316.61L275.815 316.555L275.845 316.501L275.876 316.447L275.906 316.392L275.936 316.338L275.966 316.284L275.996 316.229L276.026 316.175L276.056 316.12L276.087 316.066L276.117 316.012L276.147 315.957L276.177 315.903L276.207 315.849L276.237 315.794L276.267 315.74L276.298 315.685L276.328 315.631L276.358 315.577L276.388 315.522L276.418 315.468L276.448 315.414L276.478 315.359L276.509 315.305L276.539 315.25L276.569 315.196L276.599 315.142L276.629 315.087L276.659 315.033L276.689 314.978L276.72 314.924L276.75 314.87L276.78 314.815L276.81 314.761L276.84 314.707L276.87 314.652L276.9 314.598L276.931 314.543L276.961 314.489L276.991 314.435L277.021 314.38L277.051 314.326L277.081 314.272L277.111 314.217L277.142 314.163L277.172 314.108L277.202 314.054L277.232 314L277.262 313.945L277.292 313.891L277.322 313.836L277.353 313.782L277.383 313.728C278.261 312.143 278.193 310.401 277.365 309.052C276.538 307.705 275.017 306.849 273.208 306.887L253.96 356.022ZM253.96 356.022C253.238 357.324 252.111 358.448 250.241 358.488C248.432 358.526 246.911 357.67 246.084 356.323C245.257 354.974 245.188 353.232 246.066 351.647L246.089 351.606L246.112 351.565L246.135 351.523L246.158 351.482L246.181 351.441L246.204 351.399L246.227 351.358L246.249 351.317L246.272 351.276L246.295 351.234L246.318 351.193L246.341 351.152L246.364 351.11L246.387 351.069L246.41 351.028L246.433 350.987L246.455 350.945L246.478 350.904L246.501 350.863L246.524 350.822L246.547 350.78L246.57 350.739L246.593 350.698L246.616 350.656L246.638 350.615L246.661 350.574L246.684 350.533L246.707 350.491L246.73 350.45L246.753 350.409L246.776 350.367L246.799 350.326L246.822 350.285L246.844 350.244L246.867 350.202L246.89 350.161L246.913 350.12L246.936 350.078L246.959 350.037L246.982 349.996L247.005 349.955L247.027 349.913L247.05 349.872L247.073 349.831L247.096 349.789L247.119 349.748L247.142 349.707L247.165 349.666L247.188 349.624L247.21 349.583L247.233 349.542L247.256 349.501L247.279 349.459L247.302 349.418L247.325 349.377L247.348 349.335L247.371 349.294L247.394 349.253L247.416 349.212L247.439 349.17L247.462 349.129L247.485 349.088L247.508 349.046L247.531 349.005L247.554 348.964L247.577 348.923L247.599 348.881L247.622 348.84L247.645 348.799L247.668 348.757L247.691 348.716L247.714 348.675L247.737 348.634L247.76 348.592L247.782 348.551L247.805 348.51L247.828 348.468L247.851 348.427L247.874 348.386L247.897 348.345L247.92 348.303L247.943 348.262L247.966 348.221L247.988 348.18L248.011 348.138L248.034 348.097L248.057 348.056L248.08 348.014L248.103 347.973L248.126 347.932L248.149 347.891L248.171 347.849L248.194 347.808L248.217 347.767L248.24 347.725L248.263 347.684L248.286 347.643L248.309 347.602L248.332 347.56L248.354 347.519L248.377 347.478L248.4 347.436L248.423 347.395L248.446 347.354L248.469 347.313L248.492 347.271L248.515 347.23L248.538 347.189L248.56 347.148L248.583 347.106L248.606 347.065L248.629 347.024L248.652 346.982L248.675 346.941L248.698 346.9L248.721 346.859L248.743 346.817L248.766 346.776L248.789 346.735L248.812 346.693L248.835 346.652L248.858 346.611L248.881 346.57L248.904 346.528L248.926 346.487L248.949 346.446L248.972 346.404L248.995 346.363L249.018 346.322L249.041 346.281L249.064 346.239L249.087 346.198L249.11 346.157L249.132 346.115L249.155 346.074L249.178 346.033L249.201 345.992L249.224 345.95L249.247 345.909L249.27 345.868L249.293 345.827L249.315 345.785L249.338 345.744L249.361 345.703L249.384 345.661L249.407 345.62L249.43 345.579L249.453 345.538L249.476 345.496L249.499 345.455L249.521 345.414L249.544 345.372L249.567 345.331L249.59 345.29L249.613 345.249L249.636 345.207L249.659 345.166L249.682 345.125L249.704 345.083L249.727 345.042L249.75 345.001L249.773 344.96L249.796 344.918L249.819 344.877L249.842 344.836L249.865 344.794L249.887 344.753L249.91 344.712L249.933 344.671L249.956 344.629L249.979 344.588L250.002 344.547L250.025 344.506L250.048 344.464L250.071 344.423L250.093 344.382L250.116 344.34L250.139 344.299L250.162 344.258L250.185 344.217L250.208 344.175L250.231 344.134L250.254 344.093L250.276 344.051L250.299 344.01L250.322 343.969L250.345 343.928L250.368 343.886L250.391 343.845L250.414 343.804L250.437 343.762L250.459 343.721L250.482 343.68L250.505 343.639L250.528 343.597L250.551 343.556L250.574 343.515L250.597 343.473L250.62 343.432L250.643 343.391L250.665 343.35L250.688 343.308L250.711 343.267L250.734 343.226L250.757 343.185L250.78 343.143L250.803 343.102L250.826 343.061L250.848 343.019L250.871 342.978L250.894 342.937L250.917 342.896L250.94 342.854L250.963 342.813L250.986 342.772L251.009 342.73L251.031 342.689L251.054 342.648L251.077 342.607L251.1 342.565L251.123 342.524L251.146 342.483L251.169 342.441L251.192 342.4L251.215 342.359L251.237 342.318L251.26 342.276L251.283 342.235L251.306 342.194L251.329 342.152L251.352 342.111L251.375 342.07L251.398 342.029L251.42 341.987L251.443 341.946L251.466 341.905L251.489 341.864L251.512 341.822L251.535 341.781L251.558 341.74L251.581 341.698L251.604 341.657L251.626 341.616L251.649 341.575L251.672 341.533L251.695 341.492L251.718 341.451L251.741 341.409L251.764 341.368L251.787 341.327L251.809 341.286L251.832 341.244L251.855 341.203L251.878 341.162L251.901 341.12L251.924 341.079L251.947 341.038L251.97 340.997L251.992 340.955L252.015 340.914L252.038 340.873L252.061 340.831L252.084 340.79L252.107 340.749L252.13 340.708L252.153 340.666L252.176 340.625L252.198 340.584L252.221 340.543L252.244 340.501L252.267 340.46L252.29 340.419L252.313 340.377L252.336 340.336L252.359 340.295L252.381 340.254L252.404 340.212L252.427 340.171L252.45 340.13L252.473 340.088L252.496 340.047L252.519 340.006L252.542 339.965L252.564 339.923L252.587 339.882L252.61 339.841L252.633 339.799L252.656 339.758L252.679 339.717L252.702 339.676L252.725 339.634L252.748 339.593L252.77 339.552L252.793 339.511L252.816 339.469L252.839 339.428L252.862 339.387L252.885 339.345L252.908 339.304L252.931 339.263L252.953 339.222L252.976 339.18L252.999 339.139L253.022 339.098L253.045 339.056L253.068 339.015L253.091 338.974L253.114 338.933L253.136 338.891L253.159 338.85L253.182 338.809L253.205 338.767L253.228 338.726L253.251 338.685L253.274 338.644L253.297 338.602L253.32 338.561L253.342 338.52L253.365 338.478L253.388 338.437L253.411 338.396L253.434 338.355L253.457 338.313L253.48 338.272L253.503 338.231L253.525 338.19L253.548 338.148L253.571 338.107L253.594 338.066L253.617 338.024L253.64 337.983L253.663 337.942L253.686 337.901L253.709 337.859L253.731 337.818L253.754 337.777L253.777 337.735L253.8 337.694L253.823 337.653L253.846 337.612L253.869 337.57L253.892 337.529L253.914 337.488L253.937 337.446L253.96 337.405L253.983 337.364L254.006 337.323L254.029 337.281L254.052 337.24L254.075 337.199L254.097 337.157L254.12 337.116L254.143 337.075L254.166 337.034L254.189 336.992L254.212 336.951L254.235 336.91L254.258 336.869L254.281 336.827L254.303 336.786L254.326 336.745L254.349 336.703L254.372 336.662L254.395 336.621L254.418 336.58L254.441 336.538L254.464 336.497L254.486 336.456L254.509 336.414L254.532 336.373L254.555 336.332L254.578 336.291L254.601 336.249L254.624 336.208L254.647 336.167L254.669 336.125L254.692 336.084L254.715 336.043L254.738 336.002L254.761 335.96L254.784 335.919L254.807 335.878L254.83 335.836L254.853 335.795L254.875 335.754L254.898 335.713L254.921 335.671L254.944 335.63L254.967 335.589L254.99 335.548L255.013 335.506L255.036 335.465L255.058 335.424L255.081 335.382L255.104 335.341L255.127 335.3L255.15 335.259L255.173 335.217L255.196 335.176L255.219 335.135L255.241 335.093L255.264 335.052L255.287 335.011L255.31 334.97L255.333 334.928L255.356 334.887L255.379 334.846L255.402 334.804L255.425 334.763L255.447 334.722L255.47 334.681L255.493 334.639L255.516 334.598L255.539 334.557L255.562 334.515L255.585 334.474L255.608 334.433L255.63 334.392L255.653 334.35L255.676 334.309L255.699 334.268L255.722 334.227L255.745 334.185L255.768 334.144L255.791 334.103L255.814 334.061L255.836 334.02L255.859 333.979L255.882 333.938L255.905 333.896L255.928 333.855L255.951 333.814L255.974 333.772L255.997 333.731L256.019 333.69L256.042 333.649L256.065 333.607L256.088 333.566L256.111 333.525L256.134 333.483L256.157 333.442L256.18 333.401L256.202 333.36L256.225 333.318L256.248 333.277L256.271 333.236L256.294 333.195L256.317 333.153L256.34 333.112L256.363 333.071L256.386 333.029L256.408 332.988L256.431 332.947L256.454 332.906L256.477 332.864L256.5 332.823L256.523 332.782L256.546 332.74L256.569 332.699L256.591 332.658L256.614 332.617L256.637 332.575L256.66 332.534L256.683 332.493L256.706 332.451L256.729 332.41L256.752 332.369L256.774 332.328L256.797 332.286L256.82 332.245L256.843 332.204L256.866 332.162L256.889 332.121L256.912 332.08L256.935 332.039L256.958 331.997L256.98 331.956L257.003 331.915L257.026 331.874L257.049 331.832L257.072 331.791L257.095 331.75L257.118 331.708L257.141 331.667L257.163 331.626L257.186 331.585L257.209 331.543L257.232 331.502L257.255 331.461L257.278 331.419L257.301 331.378L257.324 331.337L257.346 331.296L257.369 331.254L257.392 331.213L257.415 331.172L257.438 331.13L257.461 331.089L257.484 331.048L257.507 331.007L257.53 330.965L257.552 330.924L257.575 330.883L257.598 330.841L257.621 330.8L257.644 330.759L257.667 330.718L257.69 330.676L257.713 330.635L257.735 330.594L257.758 330.553L257.781 330.511C258.758 328.749 259.735 326.988 260.713 325.227C263.644 319.944 266.575 314.662 269.487 309.357L269.487 309.357M253.96 356.022L269.487 309.357M269.487 309.357L269.49 309.353M269.487 309.357L269.49 309.353M269.49 309.353C269.845 308.712 270.299 308.098 270.923 307.64M269.49 309.353L270.923 307.64M270.923 307.64C271.566 307.167 272.328 306.906 273.208 306.887L270.923 307.64Z" fill="#647CAA" stroke="#647CAA" stroke-width="2.39772"/>
<path d="M264.912 359.379L264.912 359.379C263.754 358.748 262.836 357.887 262.506 356.683C262.178 355.49 262.511 354.264 263.163 353.089L263.179 353.059L263.195 353.03L263.212 353L263.228 352.971L263.244 352.941L263.261 352.912L263.277 352.882L263.294 352.852L263.31 352.823L263.326 352.793L263.343 352.764L263.359 352.734L263.375 352.705L263.392 352.675L263.408 352.646L263.424 352.616L263.441 352.587L263.457 352.557L263.474 352.528L263.49 352.498L263.506 352.469L263.523 352.439L263.539 352.41L263.555 352.38L263.572 352.35L263.588 352.321L263.604 352.291L263.621 352.262L263.637 352.232L263.654 352.203L263.67 352.173L263.686 352.144L263.703 352.114L263.719 352.085L263.735 352.055L263.752 352.026L263.768 351.996L263.784 351.967L263.801 351.937L263.817 351.908L263.834 351.878L263.85 351.849L263.866 351.819L263.883 351.789L263.899 351.76L263.915 351.73L263.932 351.701L263.948 351.671L263.964 351.642L263.981 351.612L263.997 351.583L264.014 351.553L264.03 351.524L264.046 351.494L264.063 351.465L264.079 351.435L264.095 351.406L264.112 351.376L264.128 351.347L264.144 351.317L264.161 351.288L264.177 351.258L264.194 351.229L264.21 351.199L264.226 351.17L264.243 351.14L264.259 351.111L264.275 351.081L264.292 351.052L264.308 351.022L264.324 350.992L264.341 350.963L264.357 350.933L264.373 350.904L264.39 350.874L264.406 350.845L264.423 350.815L264.439 350.786L264.455 350.756L264.472 350.727L264.488 350.697L264.504 350.668L264.521 350.638L264.537 350.609L264.553 350.579L264.57 350.55L264.586 350.52L264.602 350.491L264.619 350.461L264.635 350.432L264.652 350.402L264.668 350.373L264.684 350.343L264.701 350.314L264.717 350.284L264.733 350.255L264.75 350.225L264.766 350.196L264.782 350.166L264.799 350.137L264.815 350.107L264.831 350.078L264.848 350.048L264.864 350.019L264.881 349.989L264.897 349.96L264.913 349.93L264.93 349.901L264.946 349.871L264.962 349.842L264.979 349.812L264.995 349.783L265.011 349.753L265.028 349.724L265.044 349.694L265.06 349.665L265.077 349.635L265.093 349.606L265.109 349.576L265.126 349.547L265.142 349.517L265.159 349.488L265.175 349.458L265.191 349.429L265.208 349.399L265.224 349.37L265.24 349.34L265.257 349.311L265.273 349.281L265.289 349.251L265.306 349.222L265.322 349.192L265.338 349.163L265.355 349.133L265.371 349.104L265.387 349.074L265.404 349.045L265.42 349.015L265.437 348.986L265.453 348.956L265.469 348.927L265.486 348.897L265.502 348.868L265.518 348.838L265.535 348.809L265.551 348.779L265.567 348.75L265.584 348.72L265.6 348.691L265.616 348.661L265.633 348.632L265.649 348.602L265.665 348.573L265.682 348.543L265.698 348.514L265.715 348.484L265.731 348.455L265.747 348.425L265.764 348.396L265.78 348.366L265.796 348.337L265.813 348.307L265.829 348.278L265.845 348.248L265.862 348.219L265.878 348.189L265.894 348.16L265.911 348.13L265.927 348.101L265.943 348.071L265.96 348.042L265.976 348.013L265.992 347.983L266.009 347.954L266.025 347.924L266.041 347.895L266.058 347.865L266.074 347.836L266.091 347.806L266.107 347.777L266.123 347.747L266.14 347.718L266.156 347.688L266.172 347.659L266.189 347.629L266.205 347.6L266.221 347.57L266.238 347.541L266.254 347.511L266.27 347.482L266.287 347.452L266.303 347.423L266.319 347.393L266.336 347.364L266.352 347.334L266.368 347.305L266.385 347.275L266.401 347.246L266.418 347.216L266.434 347.187L266.45 347.157L266.467 347.128L266.483 347.098L266.499 347.069L266.516 347.039L266.532 347.01L266.548 346.98L266.565 346.951L266.581 346.921L266.597 346.892L266.614 346.862L266.63 346.833L266.646 346.803L266.663 346.774L266.679 346.744L266.695 346.715L266.712 346.685L266.728 346.656L266.744 346.626L266.761 346.597L266.777 346.567L266.793 346.538L266.81 346.508L266.826 346.479L266.843 346.449L266.859 346.42L266.875 346.39L266.892 346.361L266.908 346.331L266.924 346.302L266.941 346.272L266.957 346.243L266.973 346.213L266.99 346.184L267.006 346.154L267.022 346.125L267.039 346.095L267.055 346.066L267.071 346.036L267.088 346.007L267.104 345.977L267.12 345.948L267.137 345.918L267.153 345.889L267.169 345.859L267.186 345.83L267.202 345.8L267.219 345.771L267.235 345.741L267.251 345.712L267.268 345.682L267.284 345.653L267.3 345.623L267.317 345.594L267.333 345.564L267.349 345.535L267.366 345.506L267.382 345.476L267.398 345.447L267.415 345.417L267.431 345.388L267.447 345.358L267.464 345.329L267.48 345.299L267.496 345.27L267.513 345.24L267.529 345.211L267.545 345.181L267.562 345.152L267.578 345.122L267.594 345.093L267.611 345.063L267.627 345.034L267.644 345.004L267.66 344.975L267.676 344.945L267.693 344.916L267.709 344.886L267.725 344.857L267.742 344.827L267.758 344.798L267.774 344.768L267.791 344.739L267.807 344.709L267.823 344.68L267.84 344.65L267.856 344.621L267.872 344.591L267.889 344.562L267.905 344.532L267.921 344.503L267.938 344.473L267.954 344.444L267.97 344.414L267.987 344.385L268.003 344.355L268.019 344.326L268.036 344.296L268.052 344.267L268.069 344.237L268.085 344.208L268.101 344.178L268.118 344.149L268.134 344.119L268.15 344.09L268.167 344.06L268.183 344.031L268.199 344.001L268.216 343.972L268.232 343.942L268.248 343.913L268.265 343.883L268.281 343.854L268.297 343.824L268.314 343.795L268.33 343.765L268.346 343.736L268.363 343.706L268.379 343.677L268.395 343.647L268.412 343.618L268.428 343.588L268.445 343.559L268.461 343.529L268.477 343.5L268.494 343.47L268.51 343.441L268.526 343.411L268.543 343.382L268.559 343.352L268.575 343.323L268.592 343.293L268.608 343.264L268.624 343.234L268.641 343.205L268.657 343.175L268.673 343.146L268.69 343.116L268.706 343.087L268.722 343.057L268.739 343.028L268.755 342.999L268.772 342.969L268.788 342.94L268.804 342.91L268.821 342.881L268.837 342.851L268.853 342.822L268.87 342.792L268.886 342.763L268.902 342.733L268.919 342.704L268.935 342.674L268.951 342.645L268.968 342.615L268.984 342.586L269 342.556L269.017 342.527L269.033 342.497L269.049 342.468L269.066 342.438L269.082 342.409L269.099 342.379L269.115 342.35L269.131 342.32L269.148 342.291L269.164 342.261L269.18 342.232L269.197 342.202L269.213 342.173L269.229 342.143L269.246 342.114L269.262 342.084L269.278 342.055L269.295 342.025L269.311 341.996L269.327 341.966L269.344 341.937L269.36 341.907L269.376 341.878L269.393 341.848L269.409 341.819L269.426 341.789L269.442 341.76L269.458 341.73L269.475 341.7L269.491 341.671L269.507 341.641L269.524 341.612L269.54 341.582L269.556 341.553L269.573 341.523L269.589 341.494L269.605 341.464L269.622 341.435L269.638 341.405L269.654 341.376L269.671 341.346L269.687 341.317L269.704 341.287L269.72 341.258L269.736 341.228L269.753 341.199L269.769 341.169L269.785 341.14L269.802 341.11L269.818 341.081L269.834 341.051L269.851 341.022L269.867 340.992L269.883 340.963L269.9 340.933L269.916 340.904L269.933 340.874L269.949 340.845L269.965 340.815L269.982 340.786L269.998 340.756L270.014 340.727L270.031 340.697L270.047 340.668L270.063 340.638L270.08 340.609L270.096 340.579L270.112 340.55L270.129 340.52L270.145 340.491L270.161 340.461L270.178 340.432L270.194 340.402L270.211 340.373L270.227 340.343L270.243 340.314L270.26 340.284L270.276 340.255L270.292 340.225L270.309 340.196L270.325 340.166L270.341 340.137L270.358 340.107L270.374 340.078L270.391 340.048L270.407 340.018L270.423 339.989L270.44 339.959L270.456 339.93L270.472 339.9L270.489 339.871L270.505 339.841L270.521 339.812L270.538 339.782L270.554 339.753L270.57 339.723L270.587 339.694L270.603 339.664L270.62 339.635L270.636 339.605L270.652 339.576L270.669 339.546L270.685 339.517L270.701 339.487L270.718 339.458L270.734 339.428L270.75 339.399L270.767 339.369L270.783 339.34L270.8 339.31L270.816 339.281L270.832 339.251L270.849 339.221L270.865 339.192L270.881 339.162L270.898 339.133L270.914 339.103L270.93 339.074L270.947 339.044L270.963 339.015L270.98 338.985L270.996 338.956L271.012 338.926L271.029 338.897L271.045 338.867L271.061 338.838L271.078 338.808L271.094 338.779L271.11 338.749L271.127 338.72L271.143 338.69L271.16 338.66L271.176 338.631L271.192 338.601L271.209 338.572L271.225 338.542L271.241 338.513L271.258 338.483L271.274 338.454L271.29 338.424L271.307 338.395L271.323 338.365L271.34 338.336L271.356 338.306L271.372 338.277L271.389 338.247L271.405 338.218L271.421 338.188L271.438 338.158L271.454 338.129L271.471 338.099L271.487 338.07L271.503 338.04L271.52 338.011L271.536 337.981L271.54 337.974C274.333 332.935 277.116 327.913 279.885 322.883L279.885 322.883L279.891 322.873C280.548 321.708 281.41 320.776 282.594 320.422C283.791 320.065 285.008 320.387 286.162 321.038L286.163 321.038C287.276 321.667 288.145 322.532 288.448 323.721C288.746 324.893 288.421 326.099 287.78 327.255L287.747 327.314L287.715 327.373L287.682 327.432L287.649 327.491L287.617 327.55L287.584 327.609L287.551 327.668L287.518 327.727L287.486 327.786L287.453 327.845L287.42 327.904L287.388 327.963L287.355 328.022L287.322 328.081L287.29 328.14L287.257 328.199L287.224 328.258L287.192 328.317L287.159 328.376L287.126 328.435L287.093 328.494L287.061 328.553L287.028 328.612L286.995 328.671L286.963 328.73L286.93 328.789L286.897 328.848L286.865 328.907L286.832 328.966L286.799 329.025L286.767 329.084L286.734 329.143L286.701 329.202L286.668 329.261L286.636 329.32L286.603 329.379L286.57 329.438L286.538 329.497L286.505 329.556L286.472 329.615L286.44 329.674L286.407 329.733L286.374 329.792L286.342 329.851L286.309 329.91L286.276 329.968L286.243 330.027L286.211 330.086L286.178 330.145L286.145 330.204L286.113 330.263L286.08 330.322L286.047 330.381L286.015 330.44L285.982 330.499L285.949 330.558L285.917 330.617L285.884 330.676L285.851 330.735L285.818 330.794L285.786 330.853L285.753 330.912L285.72 330.971L285.688 331.03L285.655 331.089L285.622 331.148L285.59 331.207L285.557 331.266L285.524 331.325L285.492 331.384L285.459 331.443L285.426 331.502L285.393 331.561L285.361 331.62L285.328 331.679L285.295 331.738L285.263 331.797L285.23 331.856L285.197 331.915L285.165 331.974L285.132 332.033L285.099 332.092L285.067 332.151L285.034 332.21L285.001 332.269L284.968 332.328L284.936 332.387L284.903 332.446L284.87 332.505L284.838 332.564L284.805 332.623L284.772 332.682L284.74 332.741L284.707 332.8L284.674 332.859L284.642 332.918L284.609 332.977L284.576 333.036L284.543 333.095L284.511 333.154L284.478 333.213L284.445 333.272L284.413 333.331L284.38 333.39L284.347 333.449L284.315 333.508L284.282 333.567L284.249 333.626L284.216 333.685L284.184 333.744L284.151 333.803L284.118 333.862L284.086 333.92L284.053 333.979L284.02 334.038L283.988 334.097L283.955 334.156L283.922 334.215L283.89 334.274L283.857 334.333L283.824 334.392L283.791 334.451L283.759 334.51L283.726 334.569L283.693 334.628L283.661 334.687L283.628 334.746L283.595 334.805L283.563 334.864L283.53 334.923L283.497 334.982L283.465 335.041L283.432 335.1L283.399 335.159L283.366 335.218L283.334 335.277L283.301 335.336L283.268 335.395L283.236 335.454L283.203 335.513L283.17 335.572L283.138 335.631L283.105 335.69L283.072 335.749L283.04 335.808L283.007 335.867L282.974 335.926L282.941 335.985L282.909 336.044L282.876 336.103L282.843 336.162L282.811 336.221L282.778 336.28L282.745 336.339L282.713 336.398L282.68 336.457L282.647 336.516L282.615 336.575L282.582 336.634L282.549 336.693L282.516 336.752L282.484 336.811L282.451 336.87L282.418 336.929L282.386 336.988L282.353 337.047L282.32 337.106L282.288 337.165L282.255 337.224L282.222 337.283L282.19 337.342L282.157 337.401L282.124 337.46L282.091 337.519L282.059 337.578L282.026 337.637L281.993 337.696L281.961 337.755L281.928 337.814L281.895 337.872L281.863 337.931L281.83 337.99L281.797 338.049L281.765 338.108L281.732 338.167L281.699 338.226L281.666 338.285L281.634 338.344L281.601 338.403L281.568 338.462L281.536 338.521L281.503 338.58L281.47 338.639L281.438 338.698L281.405 338.757L281.372 338.816L281.34 338.875L281.307 338.934L281.274 338.993L281.241 339.052L281.209 339.111L281.176 339.17L281.143 339.229L281.111 339.288L281.078 339.347L281.045 339.406L281.013 339.465L280.98 339.524L280.947 339.583L280.914 339.642L280.882 339.701L280.849 339.76L280.816 339.819L280.784 339.878L280.751 339.937L280.718 339.996L280.686 340.055L280.653 340.114L280.62 340.173L280.588 340.232L280.555 340.291L280.522 340.35L280.489 340.409L280.457 340.468L280.424 340.527L280.391 340.586L280.359 340.645L280.326 340.704L280.293 340.763L280.261 340.822L280.228 340.881L280.195 340.94L280.163 340.999L280.13 341.058L280.097 341.117L280.064 341.176L280.032 341.235L279.999 341.294L279.966 341.353L279.934 341.412L279.901 341.471L279.868 341.53L279.836 341.589L279.803 341.648L279.77 341.707L279.738 341.766L279.705 341.824L279.672 341.883L279.639 341.942L279.607 342.001L279.574 342.06L279.541 342.119L279.509 342.178L279.476 342.237L279.443 342.296L279.411 342.355L279.378 342.414L279.345 342.473L279.313 342.532L279.28 342.591L279.247 342.65L279.214 342.709L279.182 342.768L279.149 342.827L279.116 342.886L279.084 342.945L279.051 343.004L279.018 343.063L278.986 343.122L278.953 343.181L278.92 343.24L278.888 343.299L278.855 343.358L278.822 343.417L278.789 343.476L278.757 343.535L278.724 343.594L278.691 343.653L278.659 343.712L278.626 343.771L278.593 343.83L278.561 343.889L278.528 343.948L278.495 344.007L278.463 344.066L278.43 344.125L278.397 344.184L278.364 344.243L278.332 344.302L278.299 344.361L278.266 344.42L278.234 344.479L278.201 344.538L278.168 344.597L278.136 344.656L278.103 344.715L278.07 344.774L278.038 344.833L278.005 344.892L277.972 344.951L277.939 345.01L277.907 345.069L277.874 345.128L277.841 345.187L277.809 345.246L277.776 345.305L277.743 345.364L277.711 345.423L277.678 345.482L277.645 345.541L277.613 345.6L277.58 345.659L277.547 345.718L277.514 345.776L277.482 345.835L277.449 345.894L277.416 345.953L277.384 346.012L277.351 346.071L277.318 346.13L277.286 346.189L277.253 346.248L277.22 346.307L277.187 346.366L277.155 346.425L277.122 346.484L277.089 346.543L277.057 346.602L277.024 346.661L276.991 346.72L276.959 346.779L276.926 346.838L276.893 346.897L276.861 346.956L276.828 347.015L276.795 347.074L276.762 347.133L276.73 347.192L276.697 347.251L276.664 347.31L276.632 347.369L276.599 347.428L276.566 347.487L276.534 347.546L276.501 347.605L276.468 347.664L276.436 347.723L276.403 347.782L276.37 347.841L276.337 347.9L276.305 347.959L276.272 348.018L276.239 348.077L276.207 348.136L276.174 348.195L276.141 348.254L276.109 348.313L276.076 348.372L276.043 348.431L276.011 348.49L275.978 348.549L275.945 348.608L275.912 348.667L275.88 348.726L275.847 348.785L275.814 348.844L275.782 348.903L275.749 348.962L275.716 349.021L275.684 349.08L275.651 349.139L275.618 349.198L275.586 349.257L275.553 349.316L275.52 349.375L275.487 349.434L275.455 349.493L275.422 349.552L275.389 349.611L275.357 349.67L275.324 349.728L275.291 349.787L275.259 349.846L275.226 349.905L275.193 349.964L275.161 350.023L275.128 350.082L275.095 350.141L275.062 350.2L275.03 350.259L274.997 350.318L274.964 350.377L274.932 350.436L274.899 350.495L274.866 350.554L274.834 350.613L274.801 350.672L274.768 350.731L274.736 350.79L274.703 350.849L274.67 350.908L274.637 350.967L274.605 351.026L274.572 351.085L274.539 351.144L274.507 351.203L274.474 351.262L274.441 351.321L274.409 351.38L274.376 351.439L274.343 351.498L274.311 351.557L274.278 351.616L274.245 351.675L274.212 351.734L274.18 351.793L274.147 351.852L274.114 351.911L274.082 351.97L274.049 352.029L274.016 352.088L273.984 352.147L273.951 352.206L273.918 352.265L273.885 352.324L273.853 352.383L273.82 352.442L273.787 352.501L273.755 352.56L273.722 352.619L273.689 352.678L273.657 352.737L273.624 352.796L273.591 352.855L273.559 352.914L273.526 352.973L273.493 353.032L273.46 353.091L273.428 353.15L273.395 353.209L273.362 353.268L273.33 353.327L273.297 353.386L273.264 353.445L273.232 353.504L273.199 353.563L273.166 353.622L273.134 353.68L273.101 353.739L273.068 353.798L273.035 353.857L273.003 353.916L272.97 353.975L272.937 354.034L272.905 354.093L272.872 354.152L272.839 354.211L272.807 354.27L272.774 354.329L272.741 354.388L272.709 354.447L272.676 354.506L272.643 354.565L272.61 354.624L272.578 354.683L272.545 354.742L272.512 354.801L272.48 354.86L272.447 354.919L272.414 354.978L272.382 355.037L272.349 355.096L272.316 355.155L272.284 355.214L272.251 355.273L272.218 355.332L272.185 355.391L272.153 355.45L272.12 355.509L272.087 355.568L272.055 355.627L272.022 355.686L271.989 355.745L271.957 355.804L271.924 355.863L271.891 355.922L271.859 355.981L271.826 356.04L271.793 356.099L271.76 356.158L271.728 356.217L271.695 356.276L271.662 356.335L271.63 356.394L271.597 356.453L271.564 356.512L271.532 356.571L271.499 356.63L271.466 356.689L271.434 356.748L271.401 356.807L271.368 356.866L271.335 356.925L271.303 356.984L271.27 357.043L271.237 357.102L271.205 357.161L271.172 357.22L271.139 357.279L271.107 357.338L271.074 357.397L271.041 357.456C270.402 358.608 269.557 359.527 268.405 359.897C267.236 360.273 266.04 359.993 264.912 359.379Z" fill="#647CAA" stroke="#647CAA" stroke-width="2.39772"/>
<path d="M559.706 126.005C549.514 122.694 538.632 129.251 537.551 139.319C536.469 149.386 537.846 190.373 526.132 245.621C522.759 261.53 558.839 269.31 567.539 250.069C577.381 228.301 599.75 139.009 559.706 126.005Z" fill="#647CAA"/>
<path d="M559.706 126.005C549.514 122.694 538.632 129.251 537.551 139.319C536.469 149.386 537.846 190.373 526.132 245.621C522.759 261.53 558.839 269.31 567.539 250.069C577.381 228.301 599.75 139.009 559.706 126.005Z" fill="url(#paint6_radial_719_10901)"/>
<path d="M559.706 126.005C549.514 122.694 538.632 129.251 537.551 139.319C536.469 149.386 537.846 190.373 526.132 245.621C522.759 261.53 558.839 269.31 567.539 250.069C577.381 228.301 599.75 139.009 559.706 126.005Z" fill="url(#paint7_radial_719_10901)"/>
<path d="M266.539 36.4182C276.878 39.2391 282.383 50.6892 277.766 59.7012C273.15 68.7132 249.524 102.234 229.025 154.858C223.122 170.012 188.684 156.734 191.96 135.872C195.666 112.272 225.922 25.3361 266.539 36.4182Z" fill="#647CAA"/>
<path d="M266.539 36.4182C276.878 39.2391 282.383 50.6892 277.766 59.7012C273.15 68.7132 249.524 102.234 229.025 154.858C223.122 170.012 188.684 156.734 191.96 135.872C195.666 112.272 225.922 25.3361 266.539 36.4182Z" fill="url(#paint8_radial_719_10901)"/>
<path d="M246.658 108.827C231.101 105.159 214.724 107.822 201.13 116.229C187.536 124.636 177.839 138.099 174.171 153.657C170.504 169.214 173.166 185.591 181.574 199.185C189.981 212.779 203.444 222.477 219.001 226.144L232.83 167.485L246.658 108.827Z" fill="url(#paint9_radial_719_10901)"/>
<path d="M198.869 163.157C173.201 252.116 243.919 316.069 338.692 338.411C433.464 360.754 525.302 335.122 542.071 244.066C559.937 147.055 484.113 58.2224 408.924 40.4969C333.735 22.7714 226.216 68.3814 198.869 163.157Z" fill="url(#paint10_radial_719_10901)"/>
<path d="M460.307 262.248C469.327 236.408 466.763 206.892 439.197 196.477C410.6 185.672 399.816 195.642 348.987 177.899C298.151 160.154 283.202 139.061 254.206 129.758C226.147 120.757 218.378 148.81 209.358 174.651C187.479 237.329 271.592 264.94 313.498 279.568C356.138 294.452 438.673 324.227 460.307 262.248Z" fill="url(#paint11_radial_719_10901)"/>
<path d="M460.307 262.248C469.327 236.408 466.763 206.892 439.197 196.477C410.6 185.672 399.816 195.642 348.987 177.899C298.151 160.154 283.202 139.061 254.206 129.758C226.147 120.757 218.378 148.81 209.358 174.651C187.479 237.329 271.592 264.94 313.498 279.568C356.138 294.452 438.673 324.227 460.307 262.248Z" fill="url(#paint12_radial_719_10901)"/>
<path d="M251.498 231.76C239.52 227.513 232.634 209.84 236.117 192.286C239.601 174.733 252.134 163.946 264.112 168.194C276.089 172.442 282.975 190.115 279.492 207.668C276.009 225.221 263.475 236.008 251.498 231.76Z" fill="black"/>
<path d="M374.88 272.936C362.816 267 358.231 248.517 364.639 231.652C371.048 214.787 386.024 205.927 398.088 211.863C410.153 217.798 414.738 236.282 408.329 253.147C401.92 270.011 386.944 278.871 374.88 272.936Z" fill="black"/>
<path fill-rule="evenodd" clip-rule="evenodd" d="M548.981 302.525C554.857 300.166 561.285 295.865 563.765 294.01C552.817 321.032 526.14 341.306 489.8 336.654L374.265 321.864L375.4 312.998L490.935 327.789C516.817 331.102 537.161 319.69 548.981 302.525Z" fill="black"/>
<circle cx="26.2966" cy="26.2966" r="26.2966" transform="matrix(0.728191 0.685374 0.685374 -0.728191 323.652 315.945)" fill="#647CAA"/>
<path d="M428.62 337.588C409.307 326.497 406.035 364.861 388.27 371.188" stroke="#647CAA" stroke-width="73.767" stroke-linecap="round"/>
<path d="M428.62 337.588C409.307 326.497 406.035 364.861 388.27 371.188" stroke="url(#paint13_radial_719_10901)" stroke-width="73.767" stroke-linecap="round"/>
<path d="M499.248 312.173C514.126 318.014 530.716 317.706 545.366 311.316C560.017 304.926 571.53 292.977 577.371 278.099C583.212 263.221 582.904 246.632 576.514 231.981C570.123 217.33 558.175 205.818 543.297 199.977L543.778 217.692C544.777 254.469 528.25 289.535 499.248 312.173Z" fill="url(#paint14_linear_719_10901)"/>
<path d="M499.248 312.173C514.126 318.014 530.716 317.706 545.366 311.316C560.017 304.926 571.53 292.977 577.371 278.099C583.212 263.221 582.904 246.632 576.514 231.981C570.123 217.33 558.175 205.818 543.297 199.977L543.778 217.692C544.777 254.469 528.25 289.535 499.248 312.173Z" fill="url(#paint15_radial_719_10901)"/>
<path d="M321.965 226.444C313.825 224.435 295.665 221.264 310.747 239.595C296.593 239.595 290.592 251.975 313.465 254.572" stroke="black" stroke-width="7.3767" stroke-linecap="round" stroke-linejoin="round"/>
<path d="M211.981 350.834C211.981 343.054 198.511 330.576 186.946 320.969C181.954 316.823 172.901 303.887 175.701 294.706" stroke="#647CAA" stroke-width="73.767" stroke-linecap="round"/>
<path d="M211.981 350.834C211.981 343.054 198.511 330.576 186.946 320.969C181.954 316.823 172.901 303.887 175.701 294.706" stroke="url(#paint16_radial_719_10901)" stroke-width="73.767" stroke-linecap="round"/>
<defs>
<radialGradient id="paint0_radial_719_10901" cx="0" cy="0" r="1" gradientUnits="userSpaceOnUse" gradientTransform="translate(46.3584 365.024) rotate(-27.5973) scale(126.458 297.649)">
<stop stop-color="white"/>
<stop offset="0.653415" stop-color="#F2F5FA"/>
<stop offset="1" stop-color="#DEE2E9"/>
</radialGradient>
<radialGradient id="paint1_radial_719_10901" cx="0" cy="0" r="1" gradientUnits="userSpaceOnUse" gradientTransform="translate(43.0125 362.259) rotate(11.1393) scale(98.9513 50.0385)">
<stop stop-color="white"/>
<stop offset="0.653415" stop-color="#F2F5FA"/>
<stop offset="1" stop-color="#DEE2E9"/>
</radialGradient>
<radialGradient id="paint2_radial_719_10901" cx="0" cy="0" r="1" gradientUnits="userSpaceOnUse" gradientTransform="translate(174.747 411.96) rotate(-78.8505) scale(189.255 64.0075)">
<stop stop-color="white"/>
<stop offset="0.653732" stop-color="#F2F5FA"/>
<stop offset="1" stop-color="#DEE2E9"/>
</radialGradient>
<radialGradient id="paint3_radial_719_10901" cx="0" cy="0" r="1" gradientUnits="userSpaceOnUse" gradientTransform="translate(483.877 358.099) rotate(169.858) scale(206.198 69.7376)">
<stop offset="0.658098" stop-color="white"/>
<stop offset="1" stop-color="#F2F5FA"/>
</radialGradient>
<radialGradient id="paint4_radial_719_10901" cx="0" cy="0" r="1" gradientUnits="userSpaceOnUse" gradientTransform="translate(279.323 333.747) rotate(151.284) scale(125.726 210.984)">
<stop offset="0.45159" stop-color="white"/>
<stop offset="0.589668" stop-color="#F2F5FA"/>
<stop offset="1" stop-color="#DEE2E9"/>
</radialGradient>
<radialGradient id="paint5_radial_719_10901" cx="0" cy="0" r="1" gradientUnits="userSpaceOnUse" gradientTransform="translate(302.472 341.409) rotate(170.9) scale(115.739 183.91)">
<stop offset="0.00520833" stop-color="#647CAA"/>
<stop offset="0.668005" stop-color="#647CAA"/>
</radialGradient>
<radialGradient id="paint6_radial_719_10901" cx="0" cy="0" r="1" gradientUnits="userSpaceOnUse" gradientTransform="translate(562.363 177.799) rotate(103.776) scale(81.5765 37.2137)">
<stop stop-color="#F7FEFF"/>
<stop offset="0.653732" stop-color="#CDD5E2"/>
<stop offset="1" stop-color="#A2ABBA"/>
</radialGradient>
<radialGradient id="paint7_radial_719_10901" cx="0" cy="0" r="1" gradientUnits="userSpaceOnUse" gradientTransform="translate(565.521 168.558) rotate(104.319) scale(91.3083 42.6348)">
<stop stop-color="white"/>
<stop offset="0.653732" stop-color="#F2F5FA"/>
<stop offset="1" stop-color="#DEE2E9"/>
</radialGradient>
<radialGradient id="paint8_radial_719_10901" cx="0" cy="0" r="1" gradientUnits="userSpaceOnUse" gradientTransform="translate(238.344 68.8152) rotate(108.934) scale(91.3083 42.6348)">
<stop stop-color="white"/>
<stop offset="0.653732" stop-color="#F2F5FA"/>
<stop offset="1" stop-color="#DEE2E9"/>
</radialGradient>
<radialGradient id="paint9_radial_719_10901" cx="0" cy="0" r="1" gradientUnits="userSpaceOnUse" gradientTransform="translate(196.46 141.196) rotate(31.8577) scale(82.8432 96.6264)">
<stop offset="0.00520833" stop-color="#647CAA"/>
<stop offset="1" stop-color="#647CAA"/>
</radialGradient>
<radialGradient id="paint10_radial_719_10901" cx="0" cy="0" r="1" gradientUnits="userSpaceOnUse" gradientTransform="translate(430.275 142.429) rotate(127.827) scale(222.778 278.97)">
<stop stop-color="white"/>
<stop offset="0.653732" stop-color="#F2F5FA"/>
<stop offset="1" stop-color="#DEE2E9"/>
</radialGradient>
<radialGradient id="paint11_radial_719_10901" cx="0" cy="0" r="1" gradientUnits="userSpaceOnUse" gradientTransform="translate(418.432 222.63) rotate(175.324) scale(217.899 545.43)">
<stop offset="0.183433" stop-color="white"/>
<stop offset="1" stop-color="white" stop-opacity="0"/>
</radialGradient>
<radialGradient id="paint12_radial_719_10901" cx="0" cy="0" r="1" gradientUnits="userSpaceOnUse" gradientTransform="translate(375.042 239.699) rotate(-176.947) scale(147.54 238)">
<stop stop-color="#647CAA"/>
<stop offset="1" stop-color="#647CAA"/>
</radialGradient>
<radialGradient id="paint13_radial_719_10901" cx="0" cy="0" r="1" gradientUnits="userSpaceOnUse" gradientTransform="translate(483.877 358.097) rotate(173.479) scale(189.255 64.0075)">
<stop stop-color="#F2F5FA"/>
<stop offset="0.561765" stop-color="white"/>
</radialGradient>
<linearGradient id="paint14_linear_719_10901" x1="509.603" y1="251.493" x2="577.371" y2="278.099" gradientUnits="userSpaceOnUse">
<stop offset="0.260417" stop-color="white"/>
<stop offset="1" stop-color="white"/>
</linearGradient>
<radialGradient id="paint15_radial_719_10901" cx="0" cy="0" r="1" gradientUnits="userSpaceOnUse" gradientTransform="translate(561.819 237.891) rotate(128.838) scale(56.5668 65.9781)">
<stop offset="0.00520833" stop-color="#647CAA"/>
<stop offset="1" stop-color="#647CAA"/>
</radialGradient>
<radialGradient id="paint16_radial_719_10901" cx="0" cy="0" r="1" gradientUnits="userSpaceOnUse" gradientTransform="translate(174.749 411.955) rotate(-78.8505) scale(189.255 64.0075)">
<stop stop-color="white"/>
<stop offset="0.653732" stop-color="#F2F5FA"/>
<stop offset="1" stop-color="#DEE2E9"/>
</radialGradient>
</defs>
</svg>
