<svg width="388" height="500" viewBox="0 0 388 500" fill="none" xmlns="http://www.w3.org/2000/svg">
<g filter="url(#filter0_f_719_10936)">
<ellipse cx="132.175" cy="439.207" rx="91.5817" ry="38.5855" fill="black" fill-opacity="0.1"/>
</g>
<path d="M21.8534 398.661C24.183 408.014 29.6447 410.449 42.5654 409.223C55.4862 407.996 116.499 384.13 129.109 367.298C141.72 350.466 131.604 331.059 112.779 333.587C91.4828 336.447 12.7011 361.914 21.8534 398.661Z" fill="#647CAA"/>
<path d="M21.8534 398.661C24.183 408.014 29.6447 410.449 42.5654 409.223C55.4862 407.996 116.499 384.13 129.109 367.298C141.72 350.466 131.604 331.059 112.779 333.587C91.4828 336.447 12.7011 361.914 21.8534 398.661Z" fill="url(#paint0_radial_719_10936)"/>
<path d="M165.978 260.23C198.625 273.563 212.512 315.171 196.996 353.165C181.479 391.158 142.435 411.15 109.788 397.817C77.1406 384.484 22.3759 368.335 78.7702 304.881C94.2868 266.888 133.331 246.897 165.978 260.23Z" fill="#D9D9D9"/>
<path d="M165.978 260.23C198.625 273.563 212.512 315.171 196.996 353.165C181.479 391.158 142.435 411.15 109.788 397.817C77.1406 384.484 22.3759 368.335 78.7702 304.881C94.2868 266.888 133.331 246.897 165.978 260.23Z" fill="url(#paint1_radial_719_10936)"/>
<path d="M145 277.897C198.822 288.963 186.794 373.26 132.161 367.388C128.674 367.013 124.9 366.45 120.806 365.68C119.241 365.385 117.728 365.077 116.266 364.755C57.7071 351.869 77.2435 265.264 136.202 276.182C136.664 276.267 137.127 276.354 137.592 276.442C140.128 276.918 142.597 277.403 145 277.897Z" fill="#647CAA"/>
<path d="M145 277.897C198.822 288.963 186.794 373.26 132.161 367.388C128.674 367.013 124.9 366.45 120.806 365.68C119.241 365.385 117.728 365.077 116.266 364.755C57.7071 351.869 77.2435 265.264 136.202 276.182C136.664 276.267 137.127 276.354 137.592 276.442C140.128 276.918 142.597 277.403 145 277.897Z" fill="url(#paint2_radial_719_10936)"/>
<path d="M197.698 302.211C220.075 329.365 168.121 348.505 72.9801 326.836" stroke="#647CAA" stroke-width="70.78" stroke-linecap="round"/>
<path d="M197.698 302.211C220.075 329.365 168.121 348.505 72.9801 326.836" stroke="url(#paint3_radial_719_10936)" stroke-width="70.78" stroke-linecap="round"/>
<path d="M342.079 52.4613C333.138 52.1837 325.945 59.9747 327.425 68.2954C328.58 74.7932 335.332 96.0537 339.895 127.444C341.175 136.25 349.412 140.691 357.363 148.754C365.315 156.816 374.781 167.516 377.269 150.067C380.084 130.327 377.202 53.5519 342.079 52.4613Z" fill="#647CAA"/>
<path d="M342.079 52.4613C333.138 52.1837 325.945 59.9747 327.425 68.2954C328.58 74.7932 335.332 96.0537 339.895 127.444C341.175 136.25 349.412 140.691 357.363 148.754C365.315 156.816 374.781 167.516 377.269 150.067C380.084 130.327 377.202 53.5519 342.079 52.4613Z" fill="url(#paint4_radial_719_10936)"/>
<path d="M73.5112 25.8652C82.3888 26.9586 88.3053 35.7582 85.5703 43.7546C82.8353 51.751 67.3289 82.2662 56.6918 128.187C53.6286 141.411 23.5931 134.563 23.8036 116.939C24.0417 97.0012 38.6344 21.57 73.5112 25.8652Z" fill="#647CAA"/>
<path d="M73.5112 25.8652C82.3888 26.9586 88.3053 35.7582 85.5703 43.7546C82.8353 51.751 67.3289 82.2662 56.6918 128.187C53.6286 141.411 23.5931 134.563 23.8036 116.939C24.0417 97.0012 38.6344 21.57 73.5112 25.8652Z" fill="url(#paint5_radial_719_10936)"/>
<path d="M73.5112 25.8652C82.3888 26.9586 88.3053 35.7582 85.5703 43.7546C82.8353 51.751 67.3289 82.2662 56.6918 128.187C53.6286 141.411 23.5931 134.563 23.8036 116.939C24.0417 97.0012 38.6344 21.57 73.5112 25.8652Z" fill="url(#paint6_radial_719_10936)"/>
<path d="M54.7357 196.667C41.4238 195.789 29.0061 189.658 20.2143 179.624C11.4224 169.59 6.97658 156.475 7.85483 143.163C8.73307 129.851 14.8634 117.434 24.8973 108.642C34.9312 99.8499 48.0467 95.4041 61.3585 96.2823L58.0471 146.475L54.7357 196.667Z" fill="url(#paint7_linear_719_10936)"/>
<path d="M54.7357 196.667C41.4238 195.789 29.0061 189.658 20.2143 179.624C11.4224 169.59 6.97658 156.475 7.85483 143.163C8.73307 129.851 14.8634 117.434 24.8973 108.642C34.9312 99.8499 48.0467 95.4041 61.3585 96.2823L58.0471 146.475L54.7357 196.667Z" fill="url(#paint8_radial_719_10936)"/>
<path d="M350.511 169.215C347.847 246.463 269.184 278.081 181.398 270.334C93.611 262.587 21.7011 217.681 32.6076 141.16C44.2274 59.6349 134.209 9.70794 203.855 15.8542C273.502 22.0006 353.349 86.9148 350.511 169.215Z" fill="url(#paint9_radial_719_10936)"/>
<path d="M61.6607 151.902C64.1795 129.197 77.4959 107.983 103.824 110.275C131.137 112.653 136.091 124.092 184.081 129.416C232.078 134.741 239.517 124.679 266.582 128.331C292.772 131.865 301.115 155.483 298.596 178.187C292.487 233.26 213.737 223.136 174.171 218.746C133.912 214.28 55.6193 206.359 61.6607 151.902Z" fill="url(#paint10_radial_719_10936)"/>
<path d="M61.6607 151.902C64.1795 129.197 77.4959 107.983 103.824 110.275C131.137 112.653 136.091 124.092 184.081 129.416C232.078 134.741 239.517 124.679 266.582 128.331C292.772 131.865 301.115 155.483 298.596 178.187C292.487 233.26 213.737 223.136 174.171 218.746C133.912 214.28 55.6193 206.359 61.6607 151.902Z" fill="url(#paint11_radial_719_10936)"/>
<ellipse cx="108.842" cy="159.864" rx="27.7587" ry="22.6419" transform="rotate(90 108.842 159.864)" fill="black"/>
<ellipse cx="27.7587" cy="22.6419" rx="27.7587" ry="22.6419" transform="matrix(1.83794e-08 -1 -1 -1.83794e-08 260.551 200.609)" fill="black"/>
<path fill-rule="evenodd" clip-rule="evenodd" d="M23.7949 183.317C20.5533 180.087 16.5195 174.709 15.3708 172.663C15.6442 196.646 28.1691 217.852 53.1188 222.55L132.441 237.488L133.958 230.187L54.6358 215.249C36.8659 211.903 27.1502 199.675 23.7949 183.317Z" fill="black"/>
<circle cx="139.514" cy="234.955" r="21.9483" transform="rotate(153.775 139.514 234.955)" fill="#647CAA"/>
<path d="M339.883 114.534C353.194 115.413 363.425 121.526 372.217 131.56C381.009 141.594 385.455 154.71 384.576 168.021C382.759 195.572 365.24 217.177 337.348 215.337C349.426 184.69 350.827 150.867 341.326 119.326L339.883 114.534Z" fill="url(#paint12_radial_719_10936)"/>
<path fill-rule="evenodd" clip-rule="evenodd" d="M170.845 184.922C168.541 181.949 165.642 180.23 163.263 179.915C160.9 179.602 157.931 180.469 155.235 182.612C152.516 184.774 150.967 187.528 150.676 189.722C150.445 191.466 150.99 192.928 152.565 194.353C154.312 195.934 157.243 197.291 160.895 197.775C164.626 198.27 168.134 197.787 170.525 196.687C172.735 195.67 173.531 194.431 173.719 193.011C173.982 191.025 173.173 187.927 170.845 184.922ZM180.915 193.965C182.096 185.058 173.747 173.982 164.218 172.718C154.688 171.455 144.661 179.861 143.48 188.768C142.298 197.674 150.412 203.708 159.941 204.972C169.47 206.236 179.734 202.871 180.915 193.965Z" fill="black"/>
<path d="M51.0271 320.582C85.6382 314.247 105.444 308.737 110.124 248.929" stroke="#647CAA" stroke-width="70.78" stroke-linecap="round"/>
<path d="M51.0271 320.582C85.6382 314.247 105.444 308.737 110.124 248.929" stroke="url(#paint13_radial_719_10936)" stroke-width="70.78" stroke-linecap="round"/>
<path d="M73.3876 414.924C57.0198 385.329 157.006 360.569 173.773 366.047C190.54 371.526 199.834 390.103 184.203 400.793C166.521 412.886 91.1621 447.063 73.3876 414.924Z" fill="#647CAA"/>
<path d="M73.3876 414.924C57.0198 385.329 157.006 360.569 173.773 366.047C190.54 371.526 199.834 390.103 184.203 400.793C166.521 412.886 91.1621 447.063 73.3876 414.924Z" fill="url(#paint14_radial_719_10936)"/>
<defs>
<filter id="filter0_f_719_10936" x="18.9777" y="379.005" width="226.396" height="120.404" filterUnits="userSpaceOnUse" color-interpolation-filters="sRGB">
<feFlood flood-opacity="0" result="BackgroundImageFix"/>
<feBlend mode="normal" in="SourceGraphic" in2="BackgroundImageFix" result="shape"/>
<feGaussianBlur stdDeviation="10.808" result="effect1_foregroundBlur_719_10936"/>
</filter>
<radialGradient id="paint0_radial_719_10936" cx="0" cy="0" r="1" gradientUnits="userSpaceOnUse" gradientTransform="translate(131.827 322.018) rotate(139.15) scale(186.851 151.582)">
<stop stop-color="white"/>
<stop offset="0.653732" stop-color="#F2F5FA"/>
<stop offset="1" stop-color="#DEE2E9"/>
</radialGradient>
<radialGradient id="paint1_radial_719_10936" cx="0" cy="0" r="1" gradientUnits="userSpaceOnUse" gradientTransform="translate(126.818 333.071) rotate(-2.08882) scale(79.6221 100.438)">
<stop offset="0.45159" stop-color="white"/>
<stop offset="0.589668" stop-color="#F2F5FA"/>
<stop offset="1" stop-color="#DEE2E9"/>
</radialGradient>
<radialGradient id="paint2_radial_719_10936" cx="0" cy="0" r="1" gradientUnits="userSpaceOnUse" gradientTransform="translate(107.75 294.31) rotate(60.6704) scale(103.364 163.395)">
<stop offset="0.00520833" stop-color="#647CAA"/>
<stop offset="0.668005" stop-color="#647CAA"/>
</radialGradient>
<radialGradient id="paint3_radial_719_10936" cx="0" cy="0" r="1" gradientUnits="userSpaceOnUse" gradientTransform="translate(85.7883 387.357) rotate(-37.2878) scale(171.385 57.9639)">
<stop stop-color="white"/>
<stop offset="0.706093" stop-color="#F2F5FA"/>
<stop offset="1" stop-color="#DEE2E9"/>
</radialGradient>
<radialGradient id="paint4_radial_719_10936" cx="0" cy="0" r="1" gradientUnits="userSpaceOnUse" gradientTransform="translate(356.655 85.2104) rotate(88.1052) scale(76.21 35.5849)">
<stop stop-color="white"/>
<stop offset="0.653732" stop-color="#F2F5FA"/>
<stop offset="1" stop-color="#DEE2E9"/>
</radialGradient>
<radialGradient id="paint5_radial_719_10936" cx="0" cy="0" r="1" gradientUnits="userSpaceOnUse" gradientTransform="translate(53.2226 64.1033) rotate(101.237) scale(68.0874 31.0603)">
<stop stop-color="#F7FEFF"/>
<stop offset="0.653732" stop-color="#CDD5E2"/>
<stop offset="1" stop-color="#A2ABBA"/>
</radialGradient>
<radialGradient id="paint6_radial_719_10936" cx="0" cy="0" r="1" gradientUnits="userSpaceOnUse" gradientTransform="translate(54.0962 55.999) rotate(100.694) scale(76.21 35.5849)">
<stop stop-color="white"/>
<stop offset="0.653732" stop-color="#F2F5FA"/>
<stop offset="1" stop-color="#DEE2E9"/>
</radialGradient>
<linearGradient id="paint7_linear_719_10936" x1="68.4885" y1="147.163" x2="7.85509" y2="143.163" gradientUnits="userSpaceOnUse">
<stop offset="0.260417" stop-color="white"/>
<stop offset="1" stop-color="white"/>
</linearGradient>
<radialGradient id="paint8_radial_719_10936" cx="0" cy="0" r="1" gradientUnits="userSpaceOnUse" gradientTransform="translate(13.8521 115.915) rotate(57.1668) scale(57.4796 67.0428)">
<stop offset="0.00520833" stop-color="#647CAA"/>
<stop offset="0.756787" stop-color="#647CAA"/>
</radialGradient>
<radialGradient id="paint9_radial_719_10936" cx="0" cy="0" r="1" gradientUnits="userSpaceOnUse" gradientTransform="translate(157.112 90.7531) rotate(68.6804) scale(188.745 248.738)">
<stop stop-color="white"/>
<stop offset="0.653732" stop-color="#F2F5FA"/>
<stop offset="1" stop-color="#DEE2E9"/>
</radialGradient>
<radialGradient id="paint10_radial_719_10936" cx="0" cy="0" r="1" gradientUnits="userSpaceOnUse" gradientTransform="translate(110.715 137.522) rotate(28.7584) scale(193.266 460.337)">
<stop offset="0.183433" stop-color="white"/>
<stop offset="1" stop-color="white" stop-opacity="0"/>
</radialGradient>
<radialGradient id="paint11_radial_719_10936" cx="0" cy="0" r="1" gradientUnits="userSpaceOnUse" gradientTransform="translate(155.134 156.924) rotate(48.2428) scale(107.782 172.97)">
<stop stop-color="#647CAA"/>
<stop offset="1" stop-color="#647CAA"/>
</radialGradient>
<radialGradient id="paint12_radial_719_10936" cx="0" cy="0" r="1" gradientUnits="userSpaceOnUse" gradientTransform="translate(369.838 152.626) rotate(165.182) scale(69.1447 80.6487)">
<stop offset="0.00520833" stop-color="#647CAA"/>
<stop offset="1" stop-color="#647CAA"/>
</radialGradient>
<radialGradient id="paint13_radial_719_10936" cx="0" cy="0" r="1" gradientUnits="userSpaceOnUse" gradientTransform="translate(136.121 257.456) rotate(145.491) scale(217.214 73.4634)">
<stop stop-color="white"/>
<stop offset="0.653732" stop-color="#F2F5FA"/>
<stop offset="1" stop-color="#DEE2E9"/>
</radialGradient>
<radialGradient id="paint14_radial_719_10936" cx="0" cy="0" r="1" gradientUnits="userSpaceOnUse" gradientTransform="translate(206.039 396.37) rotate(177.841) scale(186.462 147.11)">
<stop stop-color="white"/>
<stop offset="0.653732" stop-color="#F2F5FA"/>
<stop offset="1" stop-color="#DEE2E9"/>
</radialGradient>
</defs>
</svg>
